<svg width="97" height="28" viewBox="0 0 97 28" fill="none" xmlns="http://www.w3.org/2000/svg">
<g clip-path="url(#clip0_267_1947)">
<path fill-rule="evenodd" clip-rule="evenodd" d="M92.9431 28H4.05686C2.09653 28 0.5 26.4219 0.5 24.5V3.5C0.5 1.57107 2.09653 0 4.05686 0H92.9431C94.9017 0 96.5 1.57107 96.5 3.5V24.5C96.5 26.4219 94.9017 28 92.9431 28Z" fill="#2E3033"/>
<path fill-rule="evenodd" clip-rule="evenodd" d="M92.9431 0.560349C94.5873 0.560349 95.9331 1.8818 95.9331 3.5V24.5C95.9331 26.1182 94.5962 27.4396 92.9431 27.4396H4.05686C2.41265 27.4396 1.06691 26.1182 1.06691 24.5V3.5C1.06691 1.8818 2.40382 0.560349 4.05686 0.560349H92.9431ZM92.9431 0H4.05686C2.09653 0 0.5 1.57805 0.5 3.5V24.5C0.5 26.4289 2.09653 28 4.05686 28H92.9431C94.9017 28 96.5 26.4289 96.5 24.5V3.5C96.5 1.57805 94.9017 0 92.9431 0Z" fill="#A6A6A6"/>
<path d="M51.0757 9.2624C50.4346 9.2624 49.8942 9.0407 49.4668 8.60429C49.043 8.1801 48.8063 7.59531 48.8169 6.99831C48.8169 6.36115 49.0359 5.82175 49.4668 5.39407C49.8924 4.95766 50.4328 4.73596 51.0739 4.73596C51.7079 4.73596 52.2484 4.95766 52.6828 5.39407C53.1137 5.83571 53.3327 6.37511 53.3327 6.99831C53.3257 7.63721 53.1067 8.17661 52.6828 8.60255C52.2572 9.04245 51.7168 9.2624 51.0757 9.2624ZM32.0005 9.2624C31.3735 9.2624 30.8296 9.04419 30.3846 8.61302C29.943 8.18359 29.7188 7.6407 29.7188 7.00005C29.7188 6.3594 29.943 5.81651 30.3846 5.38708C30.8208 4.95591 31.3647 4.73771 32.0005 4.73771C32.3113 4.73771 32.6133 4.79881 32.903 4.92275C33.1873 5.04319 33.4186 5.20728 33.5899 5.40803L33.6323 5.45866L33.1537 5.92299L33.1043 5.86539C32.8341 5.54768 32.472 5.39232 31.9934 5.39232C31.566 5.39232 31.1934 5.54245 30.8861 5.8392C30.5771 6.13771 30.4199 6.52873 30.4199 7.0018C30.4199 7.47486 30.5771 7.86589 30.8861 8.16439C31.1934 8.46115 31.566 8.61127 31.9934 8.61127C32.4491 8.61127 32.8323 8.46115 33.1308 8.16439C33.3074 7.98983 33.4169 7.74544 33.4557 7.43646H31.921V6.78359H34.1145L34.1233 6.84294C34.1392 6.95292 34.1551 7.06639 34.1551 7.17112C34.1551 7.77337 33.9714 8.2604 33.6076 8.62C33.1944 9.04594 32.6539 9.2624 32.0005 9.2624ZM57.3629 9.16988H56.6865L54.6149 5.89332L54.6325 6.48334V9.16813H53.9561V4.83023H54.7279L54.7491 4.86339L56.6971 7.94968L56.6794 7.3614V4.83023H57.3629V9.16988ZM45.993 9.16988H45.3077V5.48309H44.1192V4.83023H47.1798V5.48309H45.9912V9.16988H45.993ZM43.5611 9.16988H42.8777V4.83023H43.5611V9.16988ZM39.7199 9.16988H39.0365V5.48309H37.8479V4.83023H40.9085V5.48309H39.7199V9.16988ZM37.4152 9.1629H34.7944V4.83023H37.4152V5.48309H35.4796V6.67362H37.2263V7.3195H35.4796V8.51003H37.4152V9.1629ZM49.9684 8.15566C50.2739 8.45766 50.6448 8.60953 51.0757 8.60953C51.519 8.60953 51.881 8.46115 52.183 8.15566C52.4832 7.8589 52.6351 7.46963 52.6351 7.00005C52.6351 6.53048 52.4832 6.13945 52.1848 5.84444C51.8793 5.54245 51.5066 5.39058 51.0775 5.39058C50.6342 5.39058 50.2721 5.53895 49.9719 5.84444C49.6717 6.1412 49.5198 6.53048 49.5198 7.00005C49.5198 7.46963 49.6699 7.86065 49.9684 8.15566Z" fill="white"/>
<path fill-rule="evenodd" clip-rule="evenodd" d="M48.7549 15.2291C47.0859 15.2291 45.7331 16.4807 45.7331 18.2071C45.7331 19.9179 47.0948 21.1852 48.7549 21.1852C50.4238 21.1852 51.7766 19.9248 51.7766 18.2071C51.7766 16.4807 50.4238 15.2291 48.7549 15.2291ZM48.7549 20.0051C47.8418 20.0051 47.0559 19.258 47.0559 18.2002C47.0559 17.1266 47.8436 16.3952 48.7549 16.3952C49.6679 16.3952 50.4538 17.1266 50.4538 18.2002C50.4556 19.265 49.6679 20.0051 48.7549 20.0051ZM42.1621 15.2291C40.4932 15.2291 39.1404 16.4807 39.1404 18.2071C39.1404 19.9179 40.502 21.1852 42.1621 21.1852C43.8311 21.1852 45.1839 19.9248 45.1839 18.2071C45.1839 16.4807 43.8293 15.2291 42.1621 15.2291ZM42.1621 20.0051C41.2491 20.0051 40.4632 19.258 40.4632 18.2002C40.4632 17.1266 41.2508 16.3952 42.1621 16.3952C43.0752 16.3952 43.8611 17.1266 43.8611 18.2002C43.8611 19.265 43.0752 20.0051 42.1621 20.0051ZM34.3172 16.1386V17.3989H37.3778C37.2842 18.1059 37.0476 18.6278 36.6855 18.9857C36.237 19.4291 35.5447 19.9109 34.3243 19.9109C32.4434 19.9109 30.9723 18.4096 30.9723 16.5505C30.9723 14.6914 32.4434 13.1902 34.3243 13.1902C35.3398 13.1902 36.0798 13.5864 36.629 14.0927L37.5333 13.1989C36.7703 12.4762 35.7548 11.9229 34.3314 11.9229C31.7511 11.9229 29.5859 14.0002 29.5859 16.5436C29.5859 19.0939 31.7494 21.1642 34.3314 21.1642C35.7248 21.1642 36.7703 20.7139 37.5968 19.8655C38.4393 19.0328 38.7059 17.858 38.7059 16.9101C38.7059 16.6151 38.683 16.3498 38.6353 16.1246H34.3155C34.3172 16.1229 34.3172 16.1386 34.3172 16.1386ZM66.405 17.1196C66.1524 16.451 65.3895 15.2221 63.8248 15.2221C62.2742 15.2221 60.9849 16.4283 60.9849 18.2002C60.9849 19.8725 62.26 21.1782 63.9749 21.1782C65.3524 21.1782 66.1542 20.3455 66.4845 19.8568L65.4619 19.1795C65.1228 19.677 64.6513 20.0034 63.9819 20.0034C63.3055 20.0034 62.8322 19.6997 62.5179 19.1009L66.5463 17.4513C66.5463 17.453 66.405 17.1196 66.405 17.1196ZM62.2971 18.1146C62.2653 16.9642 63.2013 16.3795 63.8707 16.3795C64.3987 16.3795 64.8385 16.6361 64.9886 17.0096L62.2971 18.1146ZM59.0246 21.0002H60.3474V12.251H59.0246V21.0002ZM56.8523 15.8907H56.8046C56.5062 15.5398 55.9393 15.2221 55.2152 15.2221C53.7122 15.2221 52.3276 16.5296 52.3276 18.2089C52.3276 19.8812 53.7052 21.173 55.2152 21.173C55.9304 21.173 56.5062 20.8535 56.8046 20.4957H56.8523V20.9233C56.8523 22.0598 56.2377 22.6725 55.247 22.6725C54.4363 22.6725 53.933 22.0964 53.7281 21.6146L52.5784 22.0894C52.9087 22.875 53.7899 23.8473 55.2452 23.8473C56.7958 23.8473 58.1098 22.9448 58.1098 20.7436V15.4002H56.8594V15.8907C56.8611 15.8907 56.8523 15.8907 56.8523 15.8907ZM55.3335 20.0051C54.4204 20.0051 53.6575 19.251 53.6575 18.2089C53.6575 17.158 54.4204 16.3969 55.3335 16.3969C56.2377 16.3969 56.9389 17.1667 56.9389 18.2089C56.9477 19.251 56.2395 20.0051 55.3335 20.0051ZM72.5986 12.251H69.4356V21.0002H70.7584V17.6869H72.6004C74.0644 17.6869 75.5038 16.6378 75.5038 14.9725C75.5038 13.3071 74.0697 12.251 72.5986 12.251ZM72.6375 16.465H70.7566V13.4625H72.6375C73.6282 13.4625 74.1881 14.2707 74.1881 14.9637C74.1881 15.6498 73.6212 16.465 72.6375 16.465ZM80.8055 15.2134C79.8448 15.2134 78.854 15.6341 78.4443 16.5505L79.617 17.0323C79.8695 16.5505 80.3322 16.3864 80.8214 16.3864C81.5067 16.3864 82.199 16.7914 82.2149 17.5141V17.6066C81.9782 17.474 81.459 17.2715 80.8373 17.2715C79.5711 17.2715 78.2871 17.9558 78.2871 19.2388C78.2871 20.4136 79.3256 21.1677 80.4824 21.1677C81.3707 21.1677 81.8599 20.7715 82.1654 20.3124H82.2131V20.9897H83.4882V17.6381C83.4882 16.0775 82.3155 15.2134 80.8055 15.2134ZM80.6395 20.0051C80.2068 20.0051 79.6011 19.7957 79.6011 19.258C79.6011 18.5807 80.357 18.3241 81.0016 18.3241C81.5844 18.3241 81.8599 18.448 82.206 18.6191C82.1107 19.4046 81.4396 19.9982 80.6395 20.0051ZM88.14 15.4002L86.6212 19.1952H86.5735L85 15.4002H83.5765L85.9377 20.7051L84.592 23.6535H85.9695L89.6023 15.4002H88.14ZM76.2332 21.0002H77.556V12.251H76.2332V21.0002Z" fill="white"/>
<path fill-rule="evenodd" clip-rule="evenodd" d="M7.88569 5.27369C7.68083 5.4919 7.5625 5.82532 7.5625 6.26172V21.7403C7.5625 22.1767 7.68083 22.5101 7.89275 22.7196L7.9475 22.7667L16.7213 14.0944V13.9006L7.94044 5.22656L7.88569 5.27369Z" fill="url(#paint0_linear_267_1947)"/>
<path fill-rule="evenodd" clip-rule="evenodd" d="M19.6451 16.9934L16.7188 14.1009V13.8984L19.6451 11.0059L19.7087 11.0443L23.1702 12.9889C24.161 13.5405 24.161 14.4517 23.1702 15.0103L19.7087 16.955L19.6451 16.9934Z" fill="url(#paint1_linear_267_1947)"/>
<path fill-rule="evenodd" clip-rule="evenodd" d="M19.7092 16.9554L16.7192 14L7.89062 22.7264C8.21382 23.0686 8.756 23.107 9.36176 22.7736L19.7092 16.9554Z" fill="url(#paint2_linear_267_1947)"/>
<path fill-rule="evenodd" clip-rule="evenodd" d="M19.7092 11.0447L9.36176 5.23523C8.756 4.89309 8.21205 4.94022 7.89062 5.28236L16.7192 14.0001L19.7092 11.0447Z" fill="url(#paint3_linear_267_1947)"/>
<path opacity="0.2" fill-rule="evenodd" clip-rule="evenodd" d="M19.6464 16.8929L9.36958 22.664C8.79561 22.9904 8.28344 22.9677 7.95319 22.671L7.89844 22.7251L7.95319 22.7722C8.28344 23.0672 8.79561 23.0917 9.36958 22.7652L19.717 16.9558L19.6464 16.8929Z" fill="#2E3033"/>
<path opacity="0.12" fill-rule="evenodd" clip-rule="evenodd" d="M23.1667 14.9095L19.6328 16.8925L19.6964 16.9554L23.1579 15.0107C23.6541 14.7314 23.8979 14.3648 23.8979 14C23.8678 14.3352 23.6153 14.6529 23.1667 14.9095Z" fill="#2E3033"/>
<path opacity="0.25" fill-rule="evenodd" clip-rule="evenodd" d="M9.35683 5.3366L23.1657 13.0907C23.6143 13.3403 23.8669 13.6668 23.9057 14.0002C23.9057 13.6354 23.662 13.2688 23.1657 12.9895L9.35683 5.23535C8.36606 4.675 7.5625 5.14283 7.5625 6.26179V6.36303C7.5625 5.24233 8.36606 4.78323 9.35683 5.3366Z" fill="white"/>
</g>
<defs>
<linearGradient id="paint0_linear_267_1947" x1="15.9343" y1="6.09473" x2="1.90208" y2="9.87741" gradientUnits="userSpaceOnUse">
<stop stop-color="#00A0FF"/>
<stop offset="0.00657" stop-color="#00A1FF"/>
<stop offset="0.2601" stop-color="#00BEFF"/>
<stop offset="0.5122" stop-color="#00D2FF"/>
<stop offset="0.7604" stop-color="#00DFFF"/>
<stop offset="1" stop-color="#00E3FF"/>
</linearGradient>
<linearGradient id="paint1_linear_267_1947" x1="24.4623" y1="13.9997" x2="7.32612" y2="13.9997" gradientUnits="userSpaceOnUse">
<stop stop-color="#FFE000"/>
<stop offset="0.4087" stop-color="#FFBD00"/>
<stop offset="0.7754" stop-color="#FFA500"/>
<stop offset="1" stop-color="#FF9C00"/>
</linearGradient>
<linearGradient id="paint2_linear_267_1947" x1="18.0833" y1="15.6081" x2="6.99373" y2="34.4914" gradientUnits="userSpaceOnUse">
<stop stop-color="#FF3A44"/>
<stop offset="1" stop-color="#C31162"/>
</linearGradient>
<linearGradient id="paint3_linear_267_1947" x1="5.66749" y1="0.125225" x2="10.615" y2="8.55868" gradientUnits="userSpaceOnUse">
<stop stop-color="#32A071"/>
<stop offset="0.0685" stop-color="#2DA771"/>
<stop offset="0.4762" stop-color="#15CF74"/>
<stop offset="0.8009" stop-color="#06E775"/>
<stop offset="1" stop-color="#00F076"/>
</linearGradient>
<clipPath id="clip0_267_1947">
<rect width="96" height="28" fill="white" transform="translate(0.5)"/>
</clipPath>
</defs>
</svg>
