<svg width="97" height="32" viewBox="0 0 97 32" fill="none" xmlns="http://www.w3.org/2000/svg">
<g clip-path="url(#clip0_267_1959)">
<path d="M88.8552 0.000104H8.14916C7.85497 0.000104 7.56432 0.000104 7.27091 0.001704C7.02531 0.003304 6.78166 0.007952 6.53369 0.011864C5.99499 0.0181854 5.45756 0.065445 4.92607 0.153232C4.39532 0.24293 3.8812 0.412037 3.4011 0.654832C2.92158 0.899681 2.48343 1.21784 2.10254 1.59776C1.71966 1.97661 1.40049 2.41452 1.15732 2.89463C0.913478 3.37379 0.744397 3.88725 0.655916 4.41729C0.566595 4.94665 0.518531 5.48212 0.512154 6.01889C0.504709 6.26417 0.503923 6.51026 0.5 6.75558V25.247C0.503923 25.4954 0.504709 25.736 0.512154 25.9845C0.518533 26.5212 0.566597 27.0567 0.655916 27.586C0.744152 28.1164 0.913243 28.6301 1.15732 29.1095C1.40038 29.588 1.71959 30.0242 2.10254 30.4009C2.48198 30.7825 2.92042 31.1009 3.4011 31.3439C3.8812 31.5873 4.39526 31.7574 4.92607 31.8485C5.45765 31.9356 5.99503 31.9829 6.53369 31.9899C6.78166 31.9954 7.02531 31.9985 7.27091 31.9985C7.56431 32.0001 7.85499 32.0001 8.14916 32.0001H88.8552C89.1435 32.0001 89.4365 32.0001 89.7248 31.9985C89.9692 31.9985 90.2199 31.9954 90.4644 31.9899C91.002 31.9832 91.5384 31.936 92.0689 31.8485C92.6014 31.7568 93.1173 31.5867 93.5997 31.3439C94.08 31.1007 94.518 30.7824 94.8971 30.4009C95.2791 30.0227 95.599 29.5869 95.845 29.1095C96.0873 28.6298 96.2548 28.1161 96.3417 27.586C96.4312 27.0566 96.4809 26.5213 96.4906 25.9845C96.4937 25.736 96.4937 25.4954 96.4937 25.247C96.5 24.9563 96.5 24.6673 96.5 24.3719V7.62901C96.5 7.33604 96.5 7.04541 96.4937 6.75558C96.4937 6.51026 96.4937 6.26417 96.4906 6.01886C96.4809 5.48204 96.4312 4.94669 96.3417 4.41726C96.2545 3.88753 96.0871 3.37411 95.845 2.8946C95.3498 1.93226 94.5646 1.14892 93.5997 0.65476C93.1173 0.412558 92.6013 0.243496 92.0689 0.15316C91.5385 0.0649862 91.0021 0.0177102 90.4644 0.011752C90.2199 0.007848 89.9692 0.00316 89.7248 0.0016C89.4365 0 89.1435 0 88.8552 0V0.000104Z" fill="#A6A6A6"/>
<path d="M7.27759 31.3004C7.03316 31.3004 6.79463 31.2973 6.55212 31.2919C6.04974 31.2854 5.54854 31.2417 5.05261 31.1614C4.59019 31.082 4.14223 30.9343 3.7235 30.7231C3.30861 30.5137 2.9302 30.2391 2.60276 29.9098C2.27059 29.5844 1.99403 29.207 1.78406 28.7926C1.57178 28.3755 1.42487 27.9284 1.34844 27.4668C1.26591 26.9709 1.22126 26.4695 1.21487 25.9668C1.20978 25.7981 1.20312 25.2364 1.20312 25.2364V6.75591C1.20312 6.75591 1.21022 6.20278 1.21491 6.04028C1.22103 5.53842 1.26542 5.03776 1.34771 4.54262C1.42427 4.07984 1.5713 3.63144 1.78369 3.21294C1.99289 2.79879 2.26791 2.42113 2.59809 2.09458C2.92789 1.76494 3.30751 1.48892 3.72311 1.27661C4.14087 1.06611 4.58799 0.919426 5.04948 0.841455C5.54703 0.760308 6.04997 0.716436 6.5541 0.710207L7.27798 0.700439H89.7236L90.4562 0.710599C90.9557 0.716519 91.4541 0.759999 91.947 0.840671C92.4132 0.91962 92.865 1.06733 93.2875 1.27895C94.1201 1.70683 94.7976 2.38377 95.2249 3.2149C95.434 3.6305 95.5787 4.07524 95.6543 4.53403C95.7376 5.03323 95.7842 5.53783 95.7937 6.0438C95.7961 6.27036 95.7961 6.51372 95.7961 6.75591C95.8024 7.05591 95.8024 7.34146 95.8024 7.62934V24.3723C95.8024 24.6629 95.8024 24.9465 95.7961 25.2324C95.7961 25.4926 95.7961 25.7309 95.7929 25.9762C95.7836 26.4731 95.7377 26.9687 95.6558 27.459C95.581 27.9238 95.4349 28.3744 95.2226 28.795C95.0112 29.2049 94.7362 29.5791 94.4079 29.9036C94.0801 30.2346 93.701 30.5108 93.2852 30.7216C92.8638 30.9344 92.4127 31.0826 91.947 31.1614C91.4512 31.2422 90.9499 31.2858 90.4475 31.2919C90.2125 31.2973 89.9665 31.3004 89.7276 31.3004L88.8579 31.302L7.27759 31.3004Z" fill="#2E3033"/>
<path d="M20.3711 16.2406C20.3797 15.5729 20.5576 14.9182 20.8881 14.3374C21.2187 13.7566 21.6912 13.2687 22.2616 12.919C21.8992 12.4028 21.4211 11.9781 20.8653 11.6784C20.3095 11.3788 19.6913 11.2125 19.0597 11.1928C17.7126 11.0518 16.4066 11.9967 15.7201 11.9967C15.0203 11.9967 13.9633 11.2068 12.8252 11.2302C12.089 11.2539 11.3715 11.4674 10.7426 11.8498C10.1137 12.2323 9.59495 12.7706 9.23678 13.4125C7.68523 16.0912 8.84254 20.028 10.3288 22.1933C11.0724 23.2536 11.9415 24.438 13.0786 24.396C14.1914 24.3499 14.607 23.6884 15.9502 23.6884C17.2809 23.6884 17.6708 24.396 18.831 24.3693C20.0251 24.3499 20.7774 23.3043 21.4949 22.2339C22.0292 21.4785 22.4403 20.6435 22.713 19.7599C22.0193 19.4674 21.4273 18.9776 21.0109 18.3518C20.5944 17.7259 20.3719 16.9917 20.3711 16.2406Z" fill="white"/>
<path d="M18.1827 9.76881C18.8337 8.98945 19.1545 7.9877 19.0768 6.97632C18.0821 7.08049 17.1634 7.55454 16.5035 8.30401C16.1809 8.67014 15.9338 9.09609 15.7764 9.5575C15.6189 10.0189 15.5542 10.5068 15.586 10.9931C16.0835 10.9982 16.5757 10.8907 17.0255 10.6786C17.4752 10.4666 17.8709 10.1555 18.1827 9.76881Z" fill="white"/>
<path d="M34.4349 21.7116H30.6375L29.7256 24.3968H28.1172L31.714 14.4624H33.3851L36.9818 24.3968H35.346L34.4349 21.7116ZM31.0308 20.4726H34.0408L32.557 16.1148H32.5155L31.0308 20.4726Z" fill="white"/>
<path d="M44.7481 20.7755C44.7481 23.0263 43.54 24.4724 41.7169 24.4724C41.2551 24.4965 40.7958 24.3904 40.3917 24.1663C39.9875 23.9422 39.6548 23.6091 39.4316 23.2052H39.3971V26.7927H37.9062V17.1537H39.3494V18.3583H39.3768C39.6102 17.9564 39.9485 17.625 40.3558 17.3995C40.763 17.1741 41.224 17.0629 41.6895 17.0779C43.5329 17.0779 44.7481 18.531 44.7481 20.7755ZM43.2157 20.7755C43.2157 19.3091 42.4557 18.3451 41.2962 18.3451C40.1571 18.3451 39.3909 19.3294 39.3909 20.7755C39.3909 22.2349 40.1571 23.2123 41.2962 23.2123C42.4557 23.2123 43.2157 22.2552 43.2157 20.7755Z" fill="white"/>
<path d="M52.7403 20.7755C52.7403 23.0263 51.5322 24.4724 49.7091 24.4724C49.2473 24.4965 48.788 24.3904 48.3839 24.1663C47.9797 23.9422 47.647 23.6091 47.4238 23.2052H47.3893V26.7927H45.8984V17.1537H47.3415V18.3583H47.369C47.6024 17.9564 47.9407 17.625 48.3479 17.3995C48.7552 17.1741 49.2161 17.0629 49.6817 17.0779C51.5251 17.0779 52.7403 18.531 52.7403 20.7755ZM51.2078 20.7755C51.2078 19.3091 50.4479 18.3451 49.2884 18.3451C48.1493 18.3451 47.3831 19.3294 47.3831 20.7755C47.3831 22.2349 48.1493 23.2123 49.2884 23.2123C50.4479 23.2123 51.2079 22.2552 51.2079 20.7755H51.2078Z" fill="white"/>
<path d="M58.0262 21.6285C58.1366 22.6136 59.0964 23.2605 60.4078 23.2605C61.6645 23.2605 62.5686 22.6136 62.5686 21.7253C62.5686 20.9542 62.0233 20.4925 60.7322 20.1761L59.4411 19.8659C57.6117 19.4253 56.7625 18.5722 56.7625 17.1878C56.7625 15.4737 58.2604 14.2964 60.3875 14.2964C62.4926 14.2964 63.9357 15.4737 63.9843 17.1878H62.4792C62.3892 16.1964 61.5673 15.598 60.3663 15.598C59.1653 15.598 58.3434 16.2034 58.3434 17.0847C58.3434 17.787 58.8684 18.2003 60.1524 18.5167L61.25 18.7854C63.294 19.2675 64.1433 20.0862 64.1433 21.5393C64.1433 23.3979 62.6586 24.562 60.2973 24.562C58.088 24.562 56.5964 23.4253 56.5 21.6284L58.0262 21.6285Z" fill="white"/>
<path d="M67.3587 15.439V17.153H68.7399V18.3304H67.3587V22.3233C67.3587 22.9437 67.6353 23.2327 68.2424 23.2327C68.4064 23.2299 68.5701 23.2184 68.7329 23.1983V24.3686C68.4599 24.4195 68.1824 24.4425 67.9048 24.4374C66.4342 24.4374 65.8608 23.8866 65.8608 22.4819V18.3304H64.8047V17.153H65.8607V15.439H67.3587Z" fill="white"/>
<path d="M69.5469 20.7745C69.5469 18.4956 70.8928 17.0636 72.9917 17.0636C75.0976 17.0636 76.4373 18.4956 76.4373 20.7745C76.4373 23.0597 75.1046 24.4855 72.9917 24.4855C70.8795 24.4855 69.5469 23.0597 69.5469 20.7745ZM74.9182 20.7745C74.9182 19.2113 74.1997 18.2886 72.9917 18.2886C71.7836 18.2886 71.066 19.2183 71.066 20.7745C71.066 22.3441 71.7836 23.2597 72.9917 23.2597C74.1997 23.2597 74.9181 22.3441 74.9181 20.7745H74.9182Z" fill="white"/>
<path d="M77.6641 17.1537H79.086V18.3865H79.1205C79.2167 18.0015 79.4429 17.6612 79.7611 17.4229C80.0792 17.1846 80.47 17.0628 80.8676 17.0779C81.0394 17.0773 81.2107 17.0959 81.3784 17.1334V18.524C81.1615 18.4579 80.9352 18.4276 80.7085 18.4342C80.4919 18.4254 80.276 18.4635 80.0756 18.5458C79.8751 18.6281 79.6949 18.7527 79.5473 18.911C79.3997 19.0693 79.2883 19.2576 79.2205 19.4629C79.1528 19.6683 79.1304 19.8858 79.155 20.1006V24.3967H77.6641L77.6641 17.1537Z" fill="white"/>
<path d="M88.2472 22.2683C88.0467 23.5831 86.7626 24.4855 85.1197 24.4855C83.0068 24.4855 81.6953 23.0737 81.6953 20.8089C81.6953 18.537 83.0138 17.0636 85.0571 17.0636C87.0666 17.0636 88.3303 18.4402 88.3303 20.6363V21.1456H83.2003V21.2355C83.1766 21.502 83.2101 21.7706 83.2985 22.0232C83.3869 22.2759 83.5282 22.5069 83.713 22.701C83.8978 22.895 84.1219 23.0476 84.3703 23.1487C84.6188 23.2497 84.886 23.2969 85.1542 23.287C85.5065 23.3199 85.8601 23.2386 86.1623 23.055C86.4645 22.8715 86.6992 22.5955 86.8316 22.2683L88.2472 22.2683ZM83.2074 20.1066H86.8386C86.852 19.8669 86.8156 19.627 86.7316 19.4021C86.6476 19.1771 86.5179 18.9719 86.3506 18.7993C86.1833 18.6267 85.9821 18.4904 85.7595 18.399C85.5369 18.3076 85.2977 18.2631 85.0571 18.2683C84.8143 18.2668 84.5736 18.3134 84.349 18.4052C84.1243 18.4969 83.9201 18.6322 83.7481 18.8031C83.5761 18.974 83.4398 19.1772 83.347 19.4009C83.2542 19.6246 83.2067 19.8645 83.2074 20.1066V20.1066Z" fill="white"/>
<path d="M30.8462 6.98491C31.1588 6.96254 31.4725 7.00963 31.7646 7.12278C32.0567 7.23592 32.32 7.41231 32.5354 7.63921C32.7509 7.86611 32.9132 8.13787 33.0106 8.43488C33.108 8.7319 33.1381 9.04677 33.0986 9.35678C33.0986 10.8818 32.2721 11.7584 30.8462 11.7584H29.1172V6.98491H30.8462ZM29.8607 11.0833H30.7632C30.9865 11.0966 31.2101 11.0601 31.4175 10.9764C31.6249 10.8927 31.811 10.764 31.9622 10.5995C32.1134 10.4351 32.226 10.2391 32.2916 10.0258C32.3573 9.81246 32.3744 9.58725 32.3418 9.36651C32.3721 9.14664 32.3532 8.92282 32.2865 8.71109C32.2198 8.49936 32.107 8.30496 31.9561 8.14182C31.8053 7.97867 31.6201 7.85083 31.4138 7.76744C31.2076 7.68405 30.9854 7.64718 30.7632 7.65948H29.8607V11.0833Z" fill="white"/>
<path d="M33.9377 9.95638C33.915 9.71965 33.9422 9.48079 34.0175 9.25514C34.0928 9.02948 34.2145 8.82201 34.3749 8.64602C34.5353 8.47004 34.7308 8.32943 34.9489 8.2332C35.167 8.13698 35.4029 8.08728 35.6413 8.08728C35.8798 8.08728 36.1157 8.13698 36.3338 8.2332C36.5519 8.32943 36.7474 8.47004 36.9078 8.64602C37.0682 8.82201 37.1899 9.02948 37.2652 9.25514C37.3405 9.48079 37.3677 9.71965 37.3449 9.95638C37.3681 10.1934 37.3412 10.4325 37.2662 10.6586C37.1911 10.8846 37.0694 11.0924 36.909 11.2688C36.7485 11.4451 36.5529 11.586 36.3345 11.6824C36.1162 11.7789 35.8801 11.8287 35.6413 11.8287C35.4026 11.8287 35.1664 11.7789 34.9481 11.6824C34.7298 11.586 34.5342 11.4451 34.3737 11.2688C34.2133 11.0924 34.0916 10.8846 34.0165 10.6586C33.9414 10.4325 33.9146 10.1934 33.9377 9.95638ZM36.6116 9.95638C36.6116 9.17553 36.2599 8.71889 35.6425 8.71889C35.0228 8.71889 34.6742 9.17553 34.6742 9.95639C34.6742 10.7435 35.0228 11.1966 35.6425 11.1966C36.2599 11.1966 36.6116 10.7404 36.6116 9.95638H36.6116Z" fill="white"/>
<path d="M41.8737 11.7586H41.1342L40.3875 9.10547H40.3311L39.5877 11.7586H38.8551L37.8594 8.15625H38.5825L39.2296 10.9051H39.2829L40.0256 8.15625H40.7095L41.4522 10.9051H41.5087L42.1526 8.15625H42.8656L41.8737 11.7586Z" fill="white"/>
<path d="M43.7031 8.15609H44.3894V8.72835H44.4427C44.5331 8.52282 44.6855 8.35052 44.8787 8.23548C45.072 8.12043 45.2964 8.06837 45.5207 8.08655C45.6965 8.07338 45.873 8.0998 46.0371 8.16388C46.2013 8.22796 46.3488 8.32804 46.4689 8.45672C46.589 8.58539 46.6785 8.73936 46.7308 8.90722C46.7831 9.07507 46.7969 9.25251 46.7711 9.42639V11.7584H46.0582V9.60492C46.0582 9.02602 45.8059 8.73812 45.2786 8.73812C45.1593 8.73258 45.0402 8.75283 44.9294 8.7975C44.8186 8.84216 44.7189 8.91018 44.637 8.99689C44.555 9.0836 44.4929 9.18694 44.4547 9.29985C44.4166 9.41275 44.4034 9.53254 44.4161 9.65101V11.7584H43.7031L43.7031 8.15609Z" fill="white"/>
<path d="M47.9062 6.75H48.6192V11.7586H47.9062V6.75Z" fill="white"/>
<path d="M49.6096 9.95645C49.5869 9.7197 49.6141 9.48083 49.6894 9.25517C49.7647 9.0295 49.8865 8.82202 50.0469 8.64603C50.2073 8.47004 50.4028 8.32943 50.6209 8.23321C50.839 8.13699 51.0749 8.08728 51.3134 8.08728C51.5519 8.08728 51.7878 8.13699 52.0059 8.23321C52.224 8.32943 52.4195 8.47004 52.5799 8.64603C52.7403 8.82202 52.8621 9.0295 52.9374 9.25517C53.0127 9.48083 53.0399 9.7197 53.0172 9.95645C53.0403 10.1934 53.0135 10.4326 52.9383 10.6586C52.8632 10.8847 52.7415 11.0925 52.5811 11.2688C52.4206 11.4452 52.2249 11.5861 52.0066 11.6825C51.7883 11.7789 51.5522 11.8287 51.3134 11.8287C51.0746 11.8287 50.8385 11.7789 50.6202 11.6825C50.4019 11.5861 50.2062 11.4452 50.0457 11.2688C49.8853 11.0925 49.7636 10.8847 49.6885 10.6586C49.6133 10.4326 49.5865 10.1934 49.6096 9.95645ZM52.2835 9.95645C52.2835 9.17559 51.9317 8.71895 51.3144 8.71895C50.6947 8.71895 50.3461 9.17559 50.3461 9.95646C50.3461 10.7436 50.6947 11.1967 51.3144 11.1967C51.9317 11.1967 52.2835 10.7404 52.2835 9.95645H52.2835Z" fill="white"/>
<path d="M53.7656 10.7404C53.7656 10.092 54.2498 9.71814 55.1092 9.66501L56.0878 9.60876V9.29782C56.0878 8.91735 55.8355 8.70251 55.3482 8.70251C54.9502 8.70251 54.6744 8.84822 54.5953 9.1029H53.9051C53.9779 8.48415 54.5616 8.08728 55.3811 8.08728C56.2867 8.08728 56.7976 8.53688 56.7976 9.29782V11.7592H56.1113V11.2529H56.0548C55.9404 11.4345 55.7796 11.5825 55.5889 11.6819C55.3983 11.7813 55.1847 11.8284 54.9698 11.8185C54.8181 11.8342 54.6649 11.8181 54.5198 11.7711C54.3748 11.7242 54.2413 11.6474 54.1278 11.5459C54.0144 11.4443 53.9235 11.3201 53.8612 11.1814C53.7988 11.0427 53.7662 10.8924 53.7656 10.7404ZM56.0878 10.4326V10.1314L55.2056 10.1877C54.7081 10.2209 54.4825 10.3896 54.4825 10.7072C54.4825 11.0314 54.7645 11.2201 55.1523 11.2201C55.266 11.2316 55.3808 11.2201 55.4899 11.1864C55.599 11.1528 55.7002 11.0975 55.7875 11.0241C55.8747 10.9506 55.9463 10.8604 55.9979 10.7588C56.0495 10.6571 56.08 10.5462 56.0878 10.4326Z" fill="white"/>
<path d="M57.7422 9.95587C57.7422 8.81759 58.329 8.0965 59.2417 8.0965C59.4675 8.08612 59.6915 8.14005 59.8877 8.25196C60.0839 8.36388 60.244 8.52916 60.3495 8.7285H60.4028V6.75H61.1157V11.7586H60.4325V11.1894H60.3761C60.2625 11.3874 60.0968 11.5507 59.8968 11.6615C59.6968 11.7722 59.4703 11.8264 59.2417 11.818C58.3227 11.818 57.7422 11.0969 57.7422 9.95587ZM58.4786 9.95587C58.4786 10.7199 58.8398 11.1797 59.4439 11.1797C60.0447 11.1797 60.4161 10.7133 60.4161 9.959C60.4161 9.20822 60.0408 8.73517 59.4439 8.73517C58.8437 8.73517 58.4786 9.19806 58.4786 9.95587H58.4786Z" fill="white"/>
<path d="M64.0627 9.95638C64.04 9.71965 64.0672 9.48079 64.1425 9.25514C64.2178 9.02948 64.3395 8.82201 64.4999 8.64602C64.6603 8.47004 64.8558 8.32943 65.0739 8.2332C65.292 8.13698 65.5279 8.08728 65.7663 8.08728C66.0048 8.08728 66.2407 8.13698 66.4588 8.2332C66.6769 8.32943 66.8724 8.47004 67.0328 8.64602C67.1932 8.82201 67.3149 9.02948 67.3902 9.25514C67.4655 9.48079 67.4927 9.71965 67.4699 9.95638C67.4931 10.1934 67.4662 10.4325 67.3912 10.6586C67.3161 10.8846 67.1944 11.0924 67.034 11.2688C66.8735 11.4451 66.6779 11.586 66.4595 11.6824C66.2412 11.7789 66.0051 11.8287 65.7663 11.8287C65.5276 11.8287 65.2914 11.7789 65.0731 11.6824C64.8548 11.586 64.6592 11.4451 64.4987 11.2688C64.3383 11.0924 64.2166 10.8846 64.1415 10.6586C64.0664 10.4325 64.0396 10.1934 64.0627 9.95638ZM66.7366 9.95638C66.7366 9.17553 66.3849 8.71889 65.7675 8.71889C65.1478 8.71889 64.7992 9.17553 64.7992 9.95639C64.7992 10.7435 65.1478 11.1966 65.7675 11.1966C66.3849 11.1966 66.7366 10.7404 66.7366 9.95638Z" fill="white"/>
<path d="M68.4297 8.15609H69.116V8.72835H69.1693C69.2596 8.52282 69.4121 8.35052 69.6053 8.23548C69.7985 8.12043 70.023 8.06837 70.2473 8.08655C70.4231 8.07338 70.5995 8.0998 70.7637 8.16388C70.9278 8.22796 71.0754 8.32804 71.1955 8.45672C71.3156 8.58539 71.4051 8.73936 71.4574 8.90722C71.5097 9.07507 71.5235 9.25251 71.4977 9.42639V11.7584H70.7847V9.60492C70.7847 9.02602 70.5325 8.73812 70.0052 8.73812C69.8859 8.73258 69.7667 8.75283 69.656 8.7975C69.5452 8.84216 69.4455 8.91018 69.3635 8.99689C69.2816 9.0836 69.2194 9.18694 69.1813 9.29985C69.1432 9.41275 69.13 9.53254 69.1426 9.65101V11.7584H68.4297V8.15609Z" fill="white"/>
<path d="M75.5216 7.25977V8.17305H76.3042V8.77188H75.5216V10.6242C75.5216 11.0016 75.6775 11.1668 76.0324 11.1668C76.1232 11.1665 76.214 11.161 76.3042 11.1504V11.7426C76.1762 11.7654 76.0465 11.7776 75.9164 11.7789C75.1236 11.7789 74.8079 11.5008 74.8079 10.8062V8.77185H74.2344V8.17301H74.8079V7.25977H75.5216Z" fill="white"/>
<path d="M77.2812 6.75H77.9879V8.73516H78.0443C78.1391 8.5277 78.2957 8.35443 78.4928 8.23895C78.6899 8.12347 78.9179 8.07141 79.1458 8.08985C79.3207 8.08036 79.4955 8.10947 79.6577 8.1751C79.82 8.24074 79.9658 8.34128 80.0846 8.46955C80.2034 8.59782 80.2924 8.75066 80.3452 8.91717C80.398 9.08367 80.4132 9.25974 80.3899 9.43282V11.7586H79.6763V9.6082C79.6763 9.03281 79.4075 8.7414 78.9038 8.7414C78.7813 8.73138 78.658 8.74818 78.5427 8.79062C78.4273 8.83306 78.3227 8.90013 78.236 8.98712C78.1494 9.07411 78.0829 9.17892 78.0411 9.29423C77.9993 9.40954 77.9833 9.53256 77.9942 9.65468V11.7586H77.2813L77.2812 6.75Z" fill="white"/>
<path d="M84.5463 10.7866C84.4495 11.1158 84.2396 11.4006 83.9534 11.5911C83.6673 11.7816 83.3231 11.8657 82.981 11.8287C82.743 11.835 82.5065 11.7895 82.2879 11.6955C82.0693 11.6015 81.8738 11.4612 81.715 11.2843C81.5563 11.1073 81.438 10.8981 81.3684 10.671C81.2989 10.444 81.2797 10.2046 81.3123 9.96937C81.2806 9.73346 81.3001 9.49352 81.3695 9.26578C81.4389 9.03804 81.5565 8.82783 81.7144 8.64937C81.8724 8.47091 82.0669 8.32837 82.2849 8.23141C82.5029 8.13444 82.7392 8.08531 82.9779 8.08734C83.983 8.08734 84.5894 8.77214 84.5894 9.90334V10.1514H82.0385V10.1913C82.0274 10.3234 82.044 10.4565 82.0874 10.5819C82.1309 10.7073 82.2001 10.8223 82.2907 10.9194C82.3812 11.0166 82.4912 11.0938 82.6134 11.1461C82.7357 11.1985 82.8676 11.2247 83.0006 11.2233C83.1711 11.2437 83.3439 11.213 83.4969 11.1353C83.65 11.0575 83.7764 10.9361 83.86 10.7865L84.5463 10.7866ZM82.0385 9.62562H83.8631C83.8721 9.50472 83.8557 9.38328 83.8148 9.2691C83.7739 9.15493 83.7095 9.05055 83.6258 8.96266C83.542 8.87477 83.4408 8.80533 83.3285 8.75879C83.2163 8.71225 83.0955 8.68964 82.9739 8.69242C82.8506 8.69088 82.7283 8.71396 82.6141 8.76032C82.4998 8.80667 82.3961 8.87536 82.3089 8.96233C82.2217 9.0493 82.1529 9.1528 82.1065 9.26671C82.06 9.38063 82.0369 9.50266 82.0385 9.62562H82.0385Z" fill="white"/>
</g>
<defs>
<clipPath id="clip0_267_1959">
<rect width="96" height="32" fill="white" transform="translate(0.5)"/>
</clipPath>
</defs>
</svg>
