<svg width="24" height="24" viewBox="0 0 24 24" fill="none" xmlns="http://www.w3.org/2000/svg">
<path fill-rule="evenodd" clip-rule="evenodd" d="M5.27988 3.33984C3.67826 3.33984 2.37988 4.63822 2.37988 6.23984V17.7598C2.37988 19.3615 3.67826 20.6598 5.27988 20.6598H18.7199C20.3215 20.6598 21.6199 19.3615 21.6199 17.7598V11.9998C21.6199 11.4586 21.1811 11.0198 20.6399 11.0198C20.0986 11.0198 19.6599 11.4586 19.6599 11.9998V17.7598C19.6599 18.279 19.239 18.6998 18.7199 18.6998H5.27988C4.76074 18.6998 4.33988 18.279 4.33988 17.7598V6.23984C4.33988 5.7207 4.76074 5.29984 5.27988 5.29984H12.9599C13.5011 5.29984 13.9399 4.86108 13.9399 4.31984C13.9399 3.77861 13.5011 3.33984 12.9599 3.33984H5.27988ZM15.8394 3.33984C15.2982 3.33984 14.8594 3.7786 14.8594 4.31984C14.8594 4.86108 15.2982 5.29984 15.8394 5.29984H18.2735L14.1864 9.38688C13.8037 9.76959 13.8037 10.3901 14.1864 10.7728C14.5692 11.1555 15.1897 11.1555 15.5724 10.7728L19.6594 6.68577V9.11984C19.6594 9.66108 20.0982 10.0998 20.6394 10.0998C21.1807 10.0998 21.6194 9.66109 21.6194 9.11984V4.31984C21.6194 3.7786 21.1807 3.33984 20.6394 3.33984H15.8394Z" fill="#4F4F4F"/>
</svg>
