<svg width="760" height="760" viewBox="0 0 760 760" fill="none" xmlns="http://www.w3.org/2000/svg">
<g clip-path="url(#clip0_6782_25033)">
<path d="M176.638 321L152.676 414.106L245.782 438.068L269.744 344.962L176.638 321ZM217.954 390.955L199.779 386.278L204.455 368.103L222.631 372.78L217.954 390.955Z" fill="#000104"/>
<path d="M106.847 331.428C131.108 331.428 141.819 345.881 141.819 360.206C141.819 369.11 137.948 376.595 130.85 381.499C141.174 393.242 147.497 409.115 149.433 427.569H105.298C103.492 402.018 98.0716 391.952 86.5862 391.952V427.569H44V331.428H106.847ZM86.5862 369.755H87.7477C95.4906 369.755 99.233 366.916 99.233 360.722C99.233 356.592 97.1682 351.172 89.1672 351.172H86.5862V369.755Z" fill="#000104"/>
<path d="M339.807 331.428C370.908 331.428 377.102 347.172 377.102 358.27C377.102 366.142 374.263 373.369 364.584 378.918C376.715 385.37 379.683 392.726 379.683 400.985C379.683 415.826 369.23 427.569 346.775 427.569H279.67V331.428H339.807ZM322.256 369.497H323.289C332.58 369.497 336.064 366.916 336.064 360.077C336.064 354.786 333.483 350.785 324.837 350.785H322.256V369.497ZM322.256 406.405H323.547C333.354 406.405 337.097 403.695 337.097 396.468C337.097 390.145 334.129 385.628 325.224 385.628H322.256V406.405Z" fill="#000104"/>
<path d="M392.727 331.428H435.313V403.437H472.608V427.569H392.727V331.428Z" fill="#000104"/>
<path d="M485.646 331.428V427.569H581.788V331.428H485.646V331.428ZM543.094 388.88H524.33V370.117H543.094V388.88Z" fill="#000104"/>
<path d="M593.273 331.428H639.731L653.927 349.107L667.477 331.428H713.676L677.284 378.66L715.999 427.569H669.412L654.185 408.47L639.473 427.569H593.273L630.827 378.918L593.273 331.428V331.428Z" fill="#000104"/>
</g>
<defs>
<clipPath id="clip0_6782_25033">
<rect width="672" height="117.068" fill="white" transform="translate(44 321)"/>
</clipPath>
</defs>
</svg>
