<svg width="760" height="760" viewBox="0 0 760 760" fill="none" xmlns="http://www.w3.org/2000/svg">
<g clip-path="url(#clip0_6589_22769)">
<path d="M98.0973 382.424L93.8077 346.739L121.114 327.834L85.2286 279.616C57.922 297.884 33.3355 344.508 39.0898 371.803C57.7127 376.901 98.0973 382.424 98.0973 382.424Z" fill="#009FDA"/>
<path d="M38.9907 386.142L97.3705 396.337L121.12 420.446C121.12 420.446 103.125 454.007 95.278 467.814C68.7037 457.512 38.6769 418.853 38.9907 386.142Z" fill="#009FDA"/>
<path d="M132.207 430.429L177.195 421.083L206.594 477.266C206.594 477.266 154.701 494.577 121.117 484.594C126.453 449.44 132.207 430.429 132.207 430.429Z" fill="#009FDA"/>
<path d="M200.102 407.913L206.588 400.691L255.447 426.924L241.742 453.582L200.102 407.913Z" fill="#009FDA"/>
<path d="M218.102 386.142V356.191L264.031 331.021L268.321 405.79L218.102 386.142Z" fill="#009FDA"/>
<path d="M200.102 331.02L209.413 344.509L285.579 302.238L268.316 284.714L200.102 331.02Z" fill="#009FDA"/>
<path d="M104.582 268.677L136.911 314.665L159.928 305.212L182.945 323.48L227.828 287.795C227.724 287.688 186.502 230.762 104.582 268.677Z" fill="#009FDA"/>
<path d="M172.062 508.597L176.352 532.706C176.352 532.706 227.722 523.678 255.343 503.499C248.856 491.073 243.102 482.364 243.102 482.364L213.703 507.535L172.062 508.597Z" fill="#009FDA"/>
<path d="M259.738 467.708L280.558 482.364L300.646 445.935L280.244 439.351L259.738 467.708Z" fill="#009FDA"/>
<path d="M285.586 357.678C288.306 373.396 289.98 405.789 285.586 417.472C294.374 421.083 307.871 426.924 307.871 426.924C307.871 426.924 319.379 390.496 307.871 354.067C296.781 356.297 285.586 357.678 285.586 357.678Z" fill="#009FDA"/>
<path d="M280.25 323.373L287.364 341.535L304.418 336.118L298.141 313.708L280.25 323.373Z" fill="#009FDA"/>
<path d="M200.102 255.614L206.588 244.674L259.737 264.535L238.394 279.616L200.102 255.614Z" fill="#009FDA"/>
<path d="M91.5078 240.532L161.396 228L183.786 232.142L179.914 244.356L163.802 240.532L98.7268 253.065L91.5078 240.532Z" fill="#009FDA"/>
<path d="M55.7304 270.589L62.6355 275.156L32.9225 327.091H13.6719L55.7304 270.589Z" fill="#009FDA"/>
<path d="M11.682 360.652C5.40463 403.984 18.1687 435.846 22.3536 439.457L35.2222 438.183C35.2222 438.183 20.7842 386.354 17.4363 359.377L11.682 360.652Z" fill="#009FDA"/>
<path d="M35.8438 470.151L48.7124 459.211C48.7124 459.211 70.8926 482.258 96.1068 492.879C90.4571 503.818 88.5739 507.429 88.5739 507.429C88.5739 507.429 51.7465 489.799 35.8438 470.151Z" fill="#009FDA"/>
<path d="M112.848 501.906V518.262L149.57 529.201L151.454 507.535L112.848 501.906Z" fill="#009FDA"/>
<path d="M442.21 436.696C431.852 449.016 419.297 456.025 404.755 456.025C379.227 456.025 361.336 438.82 361.336 416.516C361.336 391.77 378.913 370.104 442.419 367.024V363.095C442.419 340.791 433.84 331.764 411.869 331.764C397.954 331.764 380.691 338.349 367.927 347.164L363.219 324.86C375.146 316.364 395.025 308.823 414.275 308.823C451.103 308.823 467.424 324.86 466.901 362.457V420.34C466.901 431.81 468.365 433.934 480.293 433.934L478.828 454.751C456.857 456.556 447.022 448.697 443.465 436.696H442.21ZM442.524 382.743C402.139 388.159 387.283 396.656 387.283 413.543C387.283 425.863 396.489 434.996 411.346 434.996C423.796 434.996 434.781 428.624 442.524 420.234V382.743Z" fill="#009FDA"/>
<path d="M499.234 451.458V430.005C540.874 398.674 578.539 375.096 578.539 351.624C578.539 337.711 568.181 327.834 550.29 327.834C535.434 327.834 522.042 334.419 508.127 345.04L499.548 323.904C513.568 312.753 531.04 304.681 553.011 304.681C583.351 304.681 604.381 322.205 604.381 348.757C604.381 381.681 574.982 399.736 536.376 428.093H610.972V451.564H499.234V451.458Z" fill="#009FDA"/>
<path d="M712.038 436.696C701.68 449.016 689.125 456.025 674.583 456.025C649.055 456.025 631.164 438.82 631.164 416.516C631.164 391.77 648.741 370.104 712.247 367.024V363.095C712.247 340.791 703.668 331.764 681.697 331.764C667.782 331.764 650.519 338.349 637.755 347.164L633.047 324.86C644.974 316.364 664.853 308.823 684.103 308.823C720.931 308.823 737.252 324.86 736.729 362.457V420.34C736.729 431.81 738.194 433.934 750.121 433.934L748.656 454.751C726.685 456.556 716.85 448.697 713.293 436.696H712.038ZM712.247 382.743C671.862 388.159 657.006 396.656 657.006 413.543C657.006 425.863 666.213 434.996 681.069 434.996C693.52 434.996 704.505 428.624 712.247 420.234V382.743Z" fill="#009FDA"/>
</g>
<defs>
<clipPath id="clip0_6589_22769">
<rect width="740" height="304.706" fill="white" transform="translate(10 228)"/>
</clipPath>
</defs>
</svg>
