<svg width="760" height="760" viewBox="0 0 760 760" fill="none" xmlns="http://www.w3.org/2000/svg">
<g clip-path="url(#clip0_6589_22788)">
<path d="M173.431 373.9L147.179 309.489L120.926 373.9H173.431ZM127.698 257H167.788L252.487 457.031H207.028L188.96 412.486H105.392L87.3245 457.031H43L127.698 257Z" fill="#1AAEB7"/>
<path d="M367.099 373.612V373.046C367.099 352.332 351.007 337.864 330.114 337.864C309.221 337.864 293.412 352.332 293.412 373.046V373.612C293.412 394.609 309.221 408.795 330.114 408.795C351.007 408.795 367.099 394.327 367.099 373.612ZM258.119 487.108L272.798 454.764C288.327 463.56 303.852 468.661 323.899 468.661C353.262 468.661 367.099 454.481 367.099 427.242V419.864C354.401 435.185 340.563 444.548 317.694 444.548C282.401 444.548 250.496 418.732 250.496 373.617V373.051C250.496 327.653 282.963 302.12 317.694 302.12C341.121 302.12 354.958 312.053 366.532 324.82V304.958H409.448V422.707C409.448 449.95 402.95 469.807 390.252 482.573C376.135 496.763 354.401 503.005 325.034 503.005C300.468 503 277.321 497.324 258.119 487.108Z" fill="#1AAEB7"/>
<path d="M595.188 436.887L613.538 408.512C629.909 420.429 647.135 426.666 661.251 426.666C673.676 426.666 679.319 422.131 679.319 415.319V414.753C679.319 405.391 664.64 402.265 647.981 397.165C626.804 390.918 602.81 380.985 602.81 351.478V350.913C602.81 319.982 627.655 302.676 658.146 302.676C677.343 302.676 698.241 309.201 714.612 320.27L698.241 350.059C683.274 341.263 668.312 335.874 657.3 335.874C646.851 335.874 641.492 340.414 641.492 346.373V346.939C641.492 355.453 655.887 359.422 672.263 365.098C693.44 372.188 718.005 382.404 718.005 410.209V410.779C718.005 444.543 692.873 459.864 660.122 459.864C638.95 459.869 615.23 452.779 595.188 436.887Z" fill="#1AAEB7"/>
<path d="M573.745 438.718H434.461V457.031H573.745V438.718Z" fill="#004B44"/>
<path d="M501.949 265.854C458.576 265.854 426.383 298.477 426.383 338.669V339.187C426.383 379.379 458.316 411.484 501.425 411.484C544.793 411.484 576.996 378.861 576.996 338.669V338.142C576.996 330.759 575.91 323.655 573.881 316.967L537.939 336.32C537.982 337.102 538.045 337.883 538.045 338.674V339.192C538.045 359.81 524.544 377.299 501.949 377.299C480.128 377.299 465.339 359.293 465.339 338.674V338.147C465.339 317.528 478.84 300.049 501.43 300.049C506.65 300.049 511.456 301.085 515.762 302.94L552.07 283.731C539.016 272.595 521.665 265.854 501.949 265.854Z" fill="#1AAEB7"/>
<path d="M488.906 313.803L496.77 331.814C500.941 339.863 507.69 341.872 514.375 338.53L582.487 301.861V267.686L552.062 283.726L515.755 302.935L508.069 307.001C496.02 312.729 492.718 314.383 488.906 313.803Z" fill="#EB3738"/>
</g>
<defs>
<clipPath id="clip0_6589_22788">
<rect width="675" height="246" fill="white" transform="translate(43 257)"/>
</clipPath>
</defs>
</svg>
