<svg width="760" height="760" viewBox="0 0 760 760" fill="none" xmlns="http://www.w3.org/2000/svg">
<g clip-path="url(#clip0_6779_22949)">
<path d="M172.983 369.689H136.755V380H172.983V421.268H116.053L95.3516 400.637V292.316H136.755V328.421H172.983V369.689Z" fill="white"/>
<path d="M328.244 421.268H204.034L183.332 400.637V328.421H224.736V380H235.086V328.421H276.49V380H286.841V328.421H328.244V421.268Z" fill="white"/>
<path d="M380.001 328.421H338.598V421.263H380.001V328.421Z" fill="white"/>
<path d="M380.001 292.316H338.598V318.105H380.001V292.316Z" fill="white"/>
<path d="M467.983 369.689H431.755V380H467.983V421.268H411.053L390.352 400.637V292.316H431.755V328.421H467.983V369.689Z" fill="white"/>
<path d="M561.139 369.689H519.736V380H561.139V421.268H499.034L478.332 400.637V349.058L499.034 328.421H561.139V369.689Z" fill="white"/>
<path d="M664.65 421.268H623.247V369.689H612.896V421.268H571.492V292.316H612.896V328.421H643.948L664.65 349.058V421.268Z" fill="white"/>
<path d="M649.123 318.105H623.246V282H566.424L540.294 318.105H493.86L478.333 333.579V318.105H442.105V282H328.246V318.105H168.066L141.93 282H85V405.789L157.456 478H229.912V457.368L250.614 478H390.351V457.368L411.053 478H478.333V457.368L499.035 478H628.421L675 431.579V343.895L649.123 318.105ZM172.982 369.684H136.754V380H172.982V421.263H116.053L95.3509 400.632V292.316H136.754V328.421H172.982V369.684ZM328.246 421.263H204.035L183.333 400.632V328.421H224.737V380H235.088V328.421H276.491V380H286.842V328.421H328.246V421.263ZM380 421.263H338.596V328.421H380V421.263ZM380 318.105H338.596V292.316H380V318.105ZM467.982 369.684H431.754V380H467.982V421.263H411.053L390.351 400.632V292.316H431.754V328.421H467.982V369.684ZM561.14 369.684H519.737V380H561.14V421.263H499.035L478.333 400.632V349.053L499.035 328.421H561.14V369.684ZM664.649 421.263H623.246V369.684H612.895V421.263H571.491V292.316H612.895V328.421H643.947L664.649 349.053V421.263Z" fill="#9146FF"/>
</g>
<defs>
<clipPath id="clip0_6779_22949">
<rect width="590" height="196" fill="white" transform="translate(85 282)"/>
</clipPath>
</defs>
</svg>
