<svg width="760" height="760" viewBox="0 0 760 760" fill="none" xmlns="http://www.w3.org/2000/svg">
<path fill-rule="evenodd" clip-rule="evenodd" d="M450.547 234.816V374.945H481.093L481.275 332.329H507.914L519.462 331.399L527.843 328.603L532.682 324.137L534.362 317.81V315.953V251.006V249.331L532.682 243.004L527.471 238.351L518.903 235.742L506.983 234.816H450.547ZM481.092 315.953H504.001V251.006H481.092V315.953Z" fill="#0066CC"/>
<path fill-rule="evenodd" clip-rule="evenodd" d="M394.812 293.701H414.141L413.955 358.622H394.812V293.701ZM374.927 371.235L381.989 374.017L391.839 374.945H416.557L426.407 374.017L433.655 371.235L437.929 366.783L439.416 360.291V358.622V293.701V291.846L437.929 285.54L433.841 281.088L426.964 278.306L417.3 277.378H414.141H391.839L381.989 278.306L374.927 281.088L370.838 285.54L369.352 291.846V360.291L370.838 366.783L374.927 371.235Z" fill="#0066CC"/>
<path fill-rule="evenodd" clip-rule="evenodd" d="M235.039 358.622H254.181V333.581H235.039V358.622ZM279.457 358.622V333.581L279.643 293.701V291.846L278.156 285.54L273.881 281.088L267.005 278.306L257.341 277.378H254.182L232.252 277.564L222.587 278.491L215.525 281.273L211.251 285.725L209.95 291.846V306.685L234.853 306.5L235.039 293.701H254.182V317.258H231.88L222.216 318.185L215.154 320.968L211.065 325.419L209.764 331.726L209.578 360.291L210.879 366.598L214.968 371.235L221.658 374.017L230.951 374.945H279.457V358.622Z" fill="#0066CC"/>
<path fill-rule="evenodd" clip-rule="evenodd" d="M597.755 235.47H571.037L559.347 236.399L550.998 238.997L545.988 243.637L544.318 249.948V375.234H574.751V332.358H597.755V368.181L597.013 382.473L595.343 396.579L592.374 410.129L588.292 423.307L583.283 435.928L577.345 447.993L570.294 459.501L562.505 470.455L553.781 480.66L544.318 490.126L534.113 498.854L523.166 506.645L511.666 513.699L499.605 519.638L486.985 524.835L473.811 528.733L460.27 531.703L446.165 533.562L431.881 534.116L417.591 533.562L403.489 531.703L389.762 528.733L376.399 524.65L363.597 519.638L351.351 513.513L339.665 506.645L328.529 498.664L318.138 489.941L316.839 488.641L308.675 480.475L299.955 470.08L315.169 458.573L256.723 419.224V504.233L276.205 488.641L285.668 499.778L295.873 510.172L306.82 519.824L318.699 528.733L330.941 536.529L343.929 543.582L357.474 549.707L371.575 554.718L386.233 558.802L401.077 561.771L416.292 563.627L431.881 564.184L445.979 563.627L459.709 562.143L473.069 559.73L486.242 556.574L498.859 552.305L511.291 547.479L523.166 541.726L534.67 535.044L536.154 534.116L545.617 527.805L556.007 519.824L565.841 511.286L575.119 502.005L583.654 492.168L591.632 481.774L598.872 470.823L605.552 459.315L611.3 447.436L616.124 435L620.392 422.379L623.55 409.201L625.958 395.837L627.442 382.102L627.999 368.181V316.21L627.813 251.622V249.948L626.329 243.637L621.319 238.997L612.97 236.399L601.466 235.47H597.755ZM574.752 316.214H597.756V251.622H574.752V316.214Z" fill="#0066CC"/>
<path fill-rule="evenodd" clip-rule="evenodd" d="M175.603 277.378H131V417.507H156.461L156.647 375.987V374.875H178.949L188.613 373.949L195.493 371.168L199.578 366.72L201.065 360.236V358.568V293.689V291.84L199.578 285.538L195.303 281.085L188.059 278.305L178.205 277.378H175.603ZM156.461 358.564H175.603V293.689H156.461V358.564Z" fill="#0066CC"/>
<path fill-rule="evenodd" clip-rule="evenodd" d="M316.234 358.564H335.377V293.689H316.234V358.564ZM296.349 413.985L303.411 416.58L313.075 417.507H338.536L348.386 416.58L355.263 413.985L359.537 409.352L360.838 403.049V401.381V358.564V293.689V277.378H335.377H313.819L303.783 278.305L296.721 281.085L292.26 285.534L290.773 291.836V360.232L292.26 366.72L296.349 371.168L303.225 373.949L313.075 374.875H335.377V375.802V401.381H316.235V388.406H290.773V403.049L292.26 409.352L296.349 413.985Z" fill="#0066CC"/>
</svg>
