<?xml version="1.0" encoding="UTF-8"?><svg xmlns="http://www.w3.org/2000/svg" viewBox="0 0 1920 400"><defs><style>.cls-1{fill:#191919;}.cls-2{fill:#393939;}.cls-3{fill:#2f2f2f;}.cls-4{fill:none;stroke:#404040;stroke-dasharray:0 0 0 0 0 0 4 4 4 4 4 4;stroke-miterlimit:10;}</style></defs><g id="Livello_3"><rect class="cls-3" x="-46.2" y="-69.42" width="2032.18" height="515.27"/></g><g id="Livello_1"><path class="cls-1" d="m358.4,66.3c1.59,1.52,3.86,1.24,5.03-.62l48.01-76.14c1.17-1.86.33-3.38-1.87-3.38h-80.43c-2.2,0-4.31,1.77-4.68,3.94l-3.62,21c-.37,2.17.16,5.53,1.19,7.48l12.13,22.9c1.03,1.94,3.18,4.78,4.77,6.29l19.47,18.54Z"/><path class="cls-2" d="m1381.08-6.1l49.27,28.27c1.91,1.09,5.17,2.57,7.26,3.27l20.52,6.95c2.08.71,4.97-.07,6.42-1.73l3.81-4.35c1.45-1.66,4.08-4.08,5.85-5.38l1.77-1.31c1.77-1.31,3.39-4.16,3.6-6.35l1.83-19.19c.21-2.19,2.18-3.98,4.38-3.98h.21c2.2,0,3.82,1.79,3.6,3.98l-2.66,26.54c-.22,2.19,1.38,4.22,3.56,4.52l30.11,4.11c2.18.3,5.55,1.38,7.5,2.41l.28.15c1.94,1.03,4.05,3.6,4.68,5.7l.29.98c.63,2.11,1.15,5.63,1.15,7.83v1.51c0,2.2,1.78,4.29,3.95,4.64l10.69,1.74c2.17.35,5.75.66,7.95.68l38.69.36c2.2.02,4-1.23,4-2.77s-.78-3.69-1.73-4.76-3.48-2.37-5.62-2.88l-3.03-.73c-2.14-.51-5.52-1.69-7.52-2.61l-14.35-6.6c-2-.92-5.07-2.76-6.82-4.09l-4.44-3.37c-1.75-1.33-3.83-4.1-4.61-6.16l-2.76-7.22c-.79-2.05-1.47-5.54-1.53-7.73l-.23-8.86c-.06-2.2,1.36-3.9,3.14-3.78s3.34,2.01,3.46,4.21l.43,8.01c.12,2.2.9,5.66,1.73,7.7l1.74,4.26c.83,2.04,3.05,4.64,4.92,5.79l.95.58c1.88,1.15,5.07,2.8,7.09,3.67l14.7,6.34c2.02.87,5.37,2.19,7.44,2.92l5.86,2.08c2.07.74,4.94,2.31,6.36,3.5s2.67,3.96,2.77,6.16l.08,1.95c.1,2.2,1.97,3.98,4.17,3.96l149.78-1.23c2.2-.02,3.63-1.79,3.17-3.95l-11.75-55.64c-.45-2.15.97-3.91,3.17-3.91h2.37c2.2,0,4.38,1.76,4.84,3.91l6.96,32.3c.46,2.15,2.61,3.56,4.76,3.13l28.9-5.78c2.16-.43,5.55-.02,7.54.92l14.81,6.97c1.99.94,4.49.13,5.55-1.8l19.91-36.14c1.06-1.93,3.73-3.5,5.93-3.5h1.94c2.2,0,3.1,1.56,2,3.46l-23.66,40.98c-1.1,1.91-.42,4.32,1.52,5.37l48.73,26.44c1.93,1.05,4.68,2.39,6.11,2.99s3.66.89,4.97.65,3.97-1.28,5.91-2.31l14.94-7.92c1.94-1.03,3.53-.12,3.53,2.02s-1.57,4.77-3.48,5.85l-13.74,7.74c-1.92,1.08-5.04,2.26-6.94,2.61s-4.82.36-6.48,0-4.6-1.52-6.52-2.6l-76.01-42.36c-1.92-1.07-5.27-1.64-7.43-1.26l-26.7,4.67c-2.17.38-3.59,2.45-3.16,4.61l12.37,62.11c.43,2.16,1.22,5.67,1.75,7.81l.77,3.09c.53,2.14,1.78,5.49,2.78,7.45l4.1,8.05c1,1.96,2.79,3.55,3.98,3.53s3.31.33,4.72.78,3.29,1.65,4.19,2.66,2.94,2.4,4.54,3.09,4.69,1.47,6.88,1.76l5.76.75c2.18.28,5.77.56,7.97.62l46.48,1.21c2.2.06,5.76.47,7.92.91l14.51,2.99c2.15.44,5.72.86,7.92.92l7.18.2c2.2.06,4.01.4,4.03.75s-1.76.6-3.96.56l-7.25-.13c-2.2-.04-5.76-.45-7.91-.92l-14.59-3.14c-2.15-.46-5.71-.85-7.91-.87l-13.21-.09c-2.2-.01-5.8-.03-8-.04l-23.42-.11c-2.2,0-2.21.14-.02.34l18.63,1.69c2.19.2,5.77.62,7.94.93l13.43,1.92c2.18.31,5.73.89,7.9,1.28l16.39,2.97c2.16.39,5.71,1.02,7.88,1.4l11.63,2.03c2.17.38,4.14,2.48,4.38,4.66l.32,2.9c.24,2.19-1.33,3.63-3.48,3.21l-14.42-2.8c-2.16-.42-5.69-1.14-7.84-1.6l-23.32-4.99c-2.15-.46-5.7-1.07-7.88-1.35l-4.2-.54c-2.18-.28-5.76-.63-7.96-.78l-9.75-.66c-2.19-.15-5.78-.45-7.97-.68l-6.02-.61c-2.19-.22-5.73-.84-7.86-1.36l-6-1.48c-2.14-.53-3.71-.15-3.49.85s2.18,2.03,4.36,2.3l15.53,1.94c2.18.27,5.77.58,7.96.69l11.89.58c2.2.11,5.78.41,7.97.68l5.42.66c2.18.27,5.74.83,7.9,1.25l15.62,3.04c2.16.42,5.68,1.17,7.82,1.67l20.24,4.71c2.14.5,3.9,2.71,3.9,4.91v1.78c0,2.2-1.74,3.55-3.87,3l-33.98-8.76c-2.13-.55-5.66-1.25-7.83-1.56l-12.94-1.82c-2.18-.31-5.76-.56-7.96-.56h-13.19c-2.2,0-5.79-.22-7.97-.5l-12.92-1.62c-2.18-.27-5.75-.77-7.92-1.1l-.57-.09c-2.17-.33-3.56,1.15-3.07,3.29l22.03,97.48c.48,2.15,2.68,3.82,4.88,3.73l82.62-3.57c2.2-.09,4,1.59,4,3.74s-1.8,4.01-3.99,4.14l-15.16.85c-2.2.12-5.79.28-7.99.34l-75.16,2.16c-2.2.06-4.55-.76-5.22-1.83s-.55-2.58.27-3.35,3.28-1.49,5.48-1.6l3.52-.16c2.2-.1,3.82-1.18,3.61-2.4s-1.2-2.38-2.21-2.59-3.63-.42-5.83-.46l-7.63-.15c-2.2-.04-5.75.36-7.88.9l-8.33,2.09c-2.13.54-5.27,2.11-6.98,3.5l-.81.66c-1.71,1.39-3.64,4.25-4.29,6.35l-.52,1.66c-.65,2.1-1.24,5-1.3,6.45s.66,3.25,1.6,4,3.18,2.42,4.97,3.7l6.38,4.57c1.79,1.28,4.36,3.75,5.71,5.48l6.74,8.64c1.35,1.73,3.16,4.81,4.01,6.84l.1.25c.85,2.03,1.62,5.49,1.72,7.68l.05,1.08c.09,2.2-.27,5.74-.8,7.88l-.58,2.3c-.53,2.13-1.63,5.55-2.44,7.6l-1.25,3.16c-.81,2.05-2.33,5.3-3.37,7.24l-4.21,7.82c-1.04,1.94-2.84,5.06-3.99,6.93l-1.61,2.63c-1.15,1.88-.5,4.25,1.45,5.27l43.53,22.82c1.95,1.02,3.24,2.47,2.88,3.23s-2.25.51-4.18-.54l-43.46-23.57c-1.93-1.05-4.39-.33-5.45,1.6l-10.42,18.9c-1.06,1.93-2.96,3.57-4.21,3.65s-1.39-1.42-.3-3.33l23.12-40.46c1.09-1.91,2.74-5.1,3.67-7.1l3.69-7.91c.93-1.99,2.13-5.37,2.66-7.51l.71-2.84c.53-2.13.84-5.47.68-7.41s-.79-4.92-1.4-6.62-2.05-4.62-3.21-6.49l-1.08-1.74c-1.16-1.87-3.27-4.78-4.68-6.46l-1.04-1.23c-1.42-1.68-3.73-4.12-5.15-5.42s-4.13-3.27-6.03-4.38l-27.7-16.26c-1.9-1.11-4.74-2.72-6.32-3.57s-4.66-1.71-6.85-1.91l-1.6-.15c-2.19-.2-5.75-.03-7.91.39l-.54.1c-2.16.42-5.05,1.35-6.43,2.08s-3.93,2.42-5.68,3.75l-5.41,4.13c-1.75,1.33-3.51,4.2-3.91,6.36l-.31,1.7c-.4,2.16-1.48,5.57-2.4,7.57l-1.81,3.92c-.92,2-2.64,5.15-3.81,7.01l-3.08,4.87c-1.18,1.86-2.87,4.27-3.76,5.37s-.08,2.91,1.81,4.05l63.66,38.27c1.89,1.13,4.59,3.02,6,4.2s3.44,3.23,4.49,4.56,2.05,3.56,2.21,4.93.03,3.73-.29,5.23-1.32,3.85-2.21,5.23-2.63,3.99-3.86,5.81l-2.73,4.03c-1.23,1.82-2.89,4.99-3.68,7.05l-.22.58c-.79,2.05-3.23,3.73-5.43,3.73h-41.76c-2.2,0-4-.96-4-2.13s1.11-3.56,2.46-5.29l2.3-2.96c1.35-1.74,3.38-3.95,4.52-4.92s3.22-2.36,4.64-3.09,3.4-.89,4.42-.37,1.58,1.98,1.25,3.24-1.58,3.04-2.8,3.97-2.8,1.46-3.53,1.18-1.92.71-2.65,2.21.47,2.81,2.67,2.91l22.92,1.09c2.2.1,5.04-1.28,6.31-3.07l10.83-15.26c1.27-1.79,2.31-4.26,2.31-5.47s-.36-3.17-.81-4.34-1.37-2.83-2.06-3.68-2.79-2.48-4.67-3.63l-24.82-15.12c-1.88-1.14-4.97-2.99-6.87-4.1l-12.68-7.44c-1.9-1.11-5.02-2.91-6.94-3.98l-14.23-8c-1.92-1.08-4.9-.85-6.63.51l-1.95,1.53c-1.73,1.36-4.59,3.55-6.35,4.87l-10.52,7.87c-1.76,1.32-4.61,3.52-6.34,4.88l-25.97,20.64c-1.72,1.37-2.34,3.61-1.37,4.99s2.74,4.02,3.92,5.87l.4.62c1.19,1.85,2.5,5.14,2.93,7.29l.22,1.13c.42,2.16.77,5.72.77,7.92v.83c0,2.2-1.72,4-3.83,4s-3.83-1.8-3.83-4v-1.13c0-2.2-.36-5.72-.81-7.83s-1.64-4.82-2.65-6.04-2.83-3.23-4.05-4.49-3.76-3.19-5.66-4.31l-56.1-32.9c-1.9-1.11-4.97-2.52-6.84-3.13s-4.81-1.2-6.55-1.32-4.13.21-5.3.74-3,1.95-4.05,3.16-2.79,3.78-3.87,5.7l-2.27,4.06c-1.07,1.92-2.39,4.78-2.91,6.36s-.92,3.96-.88,5.3.9,3.22,1.91,4.2,3.37,2.72,5.24,3.88l46.65,29.04c1.87,1.16,1.6,2.16-.6,2.21l-4.22.1c-2.2.05-5.58-.77-7.51-1.83l-.5-.27c-1.93-1.06-4.1-1.1-4.83-.08s-3.12,1.78-5.32,1.7h-.4c-2.2-.09-3.08-1.7-1.96-3.6l.19-.33c1.12-1.89.49-4.37-1.39-5.5l-22.14-13.26c-1.89-1.13-4.85-3.16-6.59-4.51l-.31-.24c-1.74-1.35-3.69-3.55-4.34-4.88s-1.11-3.89-1.03-5.67.72-4.95,1.41-7.03l.71-2.13c.7-2.09,2.08-5.4,3.07-7.36l2.57-5.08c.99-1.96,2.93-4.73,4.31-6.15s4.15-3.3,6.17-4.18l1.06-.47c2.01-.88,5.45-1.38,7.63-1.11l.31.04c2.18.27,5.6,1.27,7.58,2.21l1.16.55c1.99.94,4.59.2,5.78-1.65l18.92-29.34c1.19-1.85,3.08-4.91,4.21-6.8l9.17-15.49c1.12-1.89.48-4.34-1.43-5.44l-58.87-33.98c-1.91-1.1-5.03-2.89-6.94-3.98l-13.66-7.81c-1.91-1.09-4.47-2.32-5.68-2.72s-2.87-.37-3.68.07-3.02,1.72-4.92,2.83l-4.14,2.43c-1.9,1.11-5.17,2.55-7.28,3.19l-.59.18c-2.11.64-5.57.72-7.7.18l-.34-.09c-2.13-.54-5.45-1.85-7.38-2.91l-9.62-5.28c-1.93-1.06-4.5-2.19-5.71-2.51s-3.78-1.46-5.71-2.53l-17.15-9.51c-1.92-1.07-5.06-2.83-6.97-3.92l-38.09-21.66c-1.91-1.09-5.03-2.88-6.94-3.98l-27.38-15.86c-1.9-1.1-4.3-.41-5.32,1.54l-1.15,2.19c-1.02,1.95-2.75,5.11-3.84,7.02l-5.45,9.54c-1.09,1.91-3.01,4.95-4.26,6.76l-6.34,9.17c-1.25,1.81-3.27,4.79-4.48,6.63l-5.9,8.93c-1.21,1.84-3.3,4.76-4.65,6.5l-6.59,8.54c-1.34,1.74-.88,4.06,1.02,5.16l31.19,17.94c1.91,1.1,4.84,3.16,6.52,4.58l10.97,9.26c1.68,1.42,4.47,3.7,6.19,5.06l12.13,9.61c1.72,1.37,4.51,3.65,6.19,5.07l19.22,16.32c1.68,1.42,4.22,3.96,5.65,5.63l44.11,51.48c1.43,1.67,3.17,3.24,3.85,3.48s2.47,1.77,3.96,3.39l12.84,13.98c1.49,1.62,4.24,3.89,6.11,5.04l16.44,10.09c1.87,1.15,2.22,2.13.76,2.17s-4.22-.8-6.14-1.88l-13.04-7.29c-1.92-1.07-4.75-3.24-6.28-4.82l-.16-.16c-1.54-1.58-4.01-4.19-5.49-5.82l-7.12-7.79c-1.48-1.62-3.06-3.15-3.51-3.39s-1.99-1.8-3.44-3.46l-44.06-50.5c-1.45-1.66-3.13-2.35-3.73-1.54s-.18,3.01.96,4.9l32.82,54.53c1.13,1.88,2.11,5.23,2.17,7.43l.23,9.08c.06,2.2,1.49,4.23,3.19,4.51s3.92,1.01,4.93,1.62,2.57,1.83,3.46,2.72.36,1.62-1.18,1.62-3.53-.56-4.42-1.25-2.84-1.32-4.34-1.4-2.86.65-3.02,1.62-2.08,1.77-4.27,1.77-3.94-.66-3.9-1.47-1.56-2.24-3.55-3.17l-60.03-28.11c-1.99-.93-3.79-2.76-3.99-4.05s.73-2.62,2.06-2.94,4.07.15,6.07,1.06l58.37,26.44c2,.91,3.54-.15,3.42-2.34l-.29-5.26c-.12-2.2-1.18-5.52-2.35-7.38l-32.83-52.11c-1.17-1.86-3.72-4.24-5.65-5.29l-16.66-9c-1.94-1.05-4.3-.28-5.26,1.7l-17.85,36.82c-.96,1.98-3.04,3.8-4.62,4.04s-3.04-.62-3.24-1.91.4-3.98,1.34-5.97l17.48-36.93c.94-1.99.07-4.36-1.93-5.27l-46.74-21.27c-2-.91-4.47-1.89-5.48-2.17s-2.44.38-3.16,1.47-2.2,3.56-3.27,5.48l-16.72,30.1c-1.07,1.92-2.9,3.56-4.08,3.64s-2.1-.75-2.06-1.84.9-3.59,1.91-5.54l17.96-34.7c1.01-1.95,2.96-4.28,4.34-5.17s3.83-1.25,5.45-.81,4.59,1.53,6.61,2.42l60.39,26.52c2.01.88,5.18,2.57,7.04,3.74l4.42,2.79c1.86,1.17,4.83,3.21,6.6,4.52l1.52,1.13c1.77,1.31,3.94,1.65,4.83.76s.25-2.79-1.42-4.22l-28.81-24.68c-1.67-1.43-4.46-3.7-6.2-5.05l-19.14-14.83c-1.74-1.35-4.73-3.34-6.64-4.43l-30.29-17.24c-1.91-1.09-4.74-.69-6.27.88l-8.24,8.42c-1.54,1.57-4.1,4.1-5.69,5.62l-4.38,4.19c-1.59,1.52-4.36,3.8-6.16,5.08l-42.78,30.27c-1.8,1.27-2.31,3.83-1.14,5.7l64.64,102.9c1.17,1.86.33,3.39-1.87,3.39h-1.57c-2.2,0-4.98-1.51-6.17-3.36l-62.64-96.92c-1.19-1.85-3.7-2.41-5.57-1.26l-35.15,21.71c-1.87,1.16-2.5,3.66-1.4,5.56l24.26,41.95c1.1,1.9,1.77,4.72,1.49,6.26s-1.71,2.2-3.16,1.47-3.59-2.86-4.75-4.73l-25.1-40.74c-1.15-1.87-3.66-2.51-5.57-1.42l-3.07,1.76c-1.91,1.09-4.98,2.97-6.82,4.18l-.51.34c-1.84,1.2-4.67,3.41-6.28,4.91l-2.53,2.35c-1.61,1.5-4.03,4.15-5.37,5.9l-4.4,5.73c-1.34,1.74-3.41,4.69-4.6,6.54l-3.62,5.64c-1.19,1.85-2.76,5.06-3.5,7.13l-1.45,4.09c-.73,2.07-1.24,4.76-1.12,5.98s1.76,3.15,3.63,4.29l1.12.69c1.88,1.15,4.34,2.85,5.47,3.78s.26,1.66-1.94,1.62l-16.29-.3c-2.2-.04-3.97-1.07-3.93-2.28s.59-3.93,1.22-6.04l.22-.72c.63-2.11,1.69-5.55,2.36-7.64l1.24-3.86c.67-2.1,2.03-5.41,3.03-7.38l1.83-3.61c.99-1.96,2.86-5.03,4.15-6.81l3.41-4.71c1.29-1.78,3.55-4.58,5.02-6.21l5.53-6.13c1.47-1.63,4.05-4.14,5.72-5.57l3.92-3.35c1.67-1.43,4.65-3.41,6.61-4.41l3.02-1.53c1.96-1,3.57-2.14,3.57-2.55s-1.52-1.7-3.38-2.87l-88.04-55.64c-1.86-1.18-3.38-2.73-3.38-3.46s-1.54-2.26-3.42-3.4l-40.44-24.54c-1.88-1.14-4.38-.55-5.56,1.3l-103.4,163.38c-1.18,1.86-3.94,3.38-6.14,3.38h-3.46c-2.2,0-3.04-1.52-1.87-3.39l22.32-35.52c1.17-1.86.55-4.26-1.37-5.33l-17.75-9.86c-1.92-1.07-4.39-.38-5.47,1.54l-15.3,26.95c-1.09,1.91-2.86,5.05-3.94,6.97l-.2.36c-1.08,1.92-3.51,4.21-5.4,5.09s-5.19,1.91-7.33,2.29-5.54.58-7.56.46-5.1-1.32-6.84-2.66l-1.43-1.1c-1.75-1.34-4.68-3.42-6.52-4.62l-6.6-4.32c-1.84-1.21-4.88-3.14-6.75-4.3l-124.25-76.89c-1.87-1.16-3.56-1.78-3.75-1.37s-1.91-.18-3.8-1.29l-.47-.27c-1.9-1.11-4.3-.44-5.34,1.5l-4.11,7.68c-1.04,1.94-2.97,4.97-4.29,6.73l-1.3,1.73c-1.32,1.76-3.9,4.2-5.73,5.42l-.2.14c-1.83,1.22-5.07,2.67-7.2,3.21l-2.16.55c-2.13.55-5.67.99-7.87.99h-.64c-2.2,0-5.7-.6-7.77-1.33l-1.85-.65c-2.08-.73-5.32-2.26-7.2-3.39l-26.44-15.94c-1.88-1.14-4.28-3.27-5.33-4.73s-2.02-4.38-2.16-6.48-1.77-4.79-3.61-5.98l-134.06-86.56c-1.85-1.19-4.31-.64-5.47,1.23l-14.33,23.11c-1.16,1.87-2.91,4.49-3.89,5.81s-2.75,2.59-3.94,2.8-3.73-.51-5.64-1.59l-6.51-3.68c-1.91-1.08-3.6-3.11-3.74-4.51s.6-2.88,1.65-3.3,3.53.01,5.52.96l3.96,1.89c1.99.95,4.56.2,5.73-1.67l43.03-68.94c1.16-1.87.64-4.42-1.17-5.67l-94.18-65.09c-1.81-1.25-4.95-1.89-6.99-1.41s-4.47.78-5.42.69-3.4.46-5.46,1.24l-7.26,2.74c-2.06.78-2.91,3.01-1.89,4.96l22.93,44c1.02,1.95,2.53,5.21,3.36,7.25l15.82,38.7c.83,2.04,1.92,5.46,2.41,7.6l15.66,68.22c.49,2.14,1.78,5.46,2.87,7.38l9.14,16.1c1.09,1.91,3.66,4.11,5.72,4.87l19.29,7.18c2.06.77,5.52,1.73,7.68,2.15l135.44,25.91c2.16.41,5.6,1.43,7.64,2.25l18.75,7.59c2.04.83,5.35,2.23,7.36,3.12l159.67,70.9c2.01.89,1.86,1.62-.34,1.62h-19.41c-2.2,0-5.66-.69-7.69-1.54l-159.6-66.7c-2.03-.85-5.45-1.93-7.6-2.4l-17.73-3.89c-2.15-.47-5.68-1.17-7.85-1.56l-111.75-19.79c-2.17-.38-5.57-1.47-7.55-2.41l-28.28-13.4c-1.99-.94-4.47-3.29-5.53-5.23l-11.12-20.45c-1.05-1.93-3.69-3.23-5.86-2.89l-131.57,20.75c-2.17.34-3.47,2.36-2.88,4.48l30.05,107.73c.59,2.12-.73,3.85-2.93,3.85h-.62c-2.2,0-4.43-1.75-4.96-3.88l-2.84-11.51c-.53-2.14-1.8-2.29-2.83-.35l-6.46,12.21c-1.03,1.94-2.99,3.54-4.37,3.54s-1.65-1.59-.62-3.53l9.63-18.11c1.03-1.94,1.38-5.26.76-7.37l-23.4-80.76c-.61-2.11-2.89-3.53-5.05-3.14l-16.39,2.91c-2.17.38-3.6,2.47-3.18,4.63l5.97,30.93c.42,2.16.15,4.9-.6,6.08s-2.28,1.95-3.4,1.7-2.41-2.22-2.86-4.37l-6.76-32.54c-.45-2.15-2.59-3.62-4.76-3.25l-78.06,13.18c-2.17.37-5.69,1.11-7.82,1.66l-60.51,15.48c-2.13.55-4.03.43-4.22-.26s-2.1-.87-4.25-.41l-92.44,19.75c-2.15.46-3.91-.84-3.91-2.89s1.76-4.12,3.91-4.59l19.99-4.39c2.15-.47,5.67-1.2,7.83-1.62l37.57-7.29c2.16-.42,5.68-1.19,7.81-1.71l17.31-4.21c2.14-.52,5.64-1.36,7.78-1.88l57.31-13.73c2.14-.51,3.58-2.71,3.2-4.87l-15.36-88.18c-.38-2.17-2.46-3.62-4.62-3.22l-74.88,13.74c-2.16.4-4.66.21-5.55-.42s-1.19-2.17-.67-3.43,2.71-2.6,4.88-2.99l74.34-13.3c2.17-.39,3.58-2.47,3.14-4.62l-5.4-26.61c-.44-2.16-2.52-3.41-4.63-2.79L-.8,203.11c-2.11.62-3.84-.66-3.84-2.83s1.73-4.47,3.84-5.09l122.89-36.16c2.11-.62,3.62-2.92,3.35-5.1l-.36-2.94c-.27-2.18-1.58-3.82-2.91-3.63s-2.69,1.94-3.02,3.9-1.63,4.19-2.89,4.97-4.02,1.9-6.13,2.5l-75.86,21.46c-2.12.6-5.21.85-6.87.55s-3.81-1.5-4.77-2.69-2.24-3.88-2.85-5.99l-6.25-21.73c-.61-2.11-2.83-3.34-4.94-2.72l-7.91,2.32c-2.11.62-4.39-.59-5.05-2.69l-.53-1.65c-.67-2.1.51-4.32,2.62-4.94l.11-.03c2.11-.62,3.29-2.76,2.63-4.75s-1.21-5.43-1.21-7.63v-20.21c0-2.2.51-2.28,1.14-.17l7.65,25.65c.63,2.11,2.88,3.35,5,2.76l34.34-9.54c2.12-.59,3.47-2.83,3.01-4.98l-1.8-8.3c-.47-2.15-1.18-3.91-1.59-3.91s-1.15-1.75-1.66-3.89l-.45-1.89c-.51-2.14-1.18-5.67-1.49-7.85l-2.21-15.19c-.32-2.18-.73-3.35-.91-2.62s-.61,1.86-.94,2.49-1.39,1.6-2.35,2.15-3.47,1.43-5.57,1.95-5.62,1.09-7.81,1.28l-1.57.13c-2.19.19-5.77.59-7.95.89l-2.69.37c-2.18.3-5.66,1.14-7.74,1.85l-5.73,1.97c-2.08.71-4.11-.47-4.5-2.64l-.18-.99c-.39-2.16,1.04-4.35,3.18-4.85l3.09-.73c2.14-.5,3.73-2.71,3.52-4.9l-.33-3.45c-.21-2.19-.9-5.25-1.55-6.8s-2.31-4.12-3.69-5.71-2.47-4.69-2.42-6.89l.33-13.23c.06-2.2,1.73-3.61,3.73-3.13s4.14,2.6,4.76,4.71l.83,2.8c.62,2.11,1.46,5.61,1.87,7.77l4.16,22.09c.41,2.16,2.52,3.69,4.7,3.4l1.07-.14c2.18-.29,3.96.16,3.96,1.01s1.78,1.27,3.95.93l8.5-1.32c2.17-.34,3.63-2.39,3.25-4.55l-9.72-54.14c-.39-2.17.3-3.94,1.52-3.94s1.86-1.76,1.41-3.92l-1.22-5.85c-.45-2.15-1.04-5.7-1.32-7.88l-.6-4.78c-.27-2.18,1.06-3.07,2.96-1.96l.64.37c1.9,1.1,3.78,3.78,4.17,5.94l18.67,104.22c.39,2.17.4,4.77.04,5.78s-.17,3.57.43,5.69l1.82,6.36c.6,2.12,2.83,3.36,4.95,2.77l194.06-54.07c2.12-.59,5.51-1.79,7.52-2.66l5.04-2.18c2.02-.87,5.03-2.77,6.69-4.21l14.71-12.81c1.66-1.44,3.96-4.16,5.11-6.04l4.85-7.9c1.15-1.88,1.5-5.11.78-7.19l-.05-.14c-.72-2.08-2.56-5.07-4.09-6.66l-3.15-3.27c-1.53-1.58-4.22-3.95-5.99-5.26l-21.67-15.99c-1.77-1.31-1.42-2.41.78-2.46l22.45-.49c2.2-.05,5.5.9,7.34,2.1l12.72,8.33c1.84,1.21,3.78.45,4.32-1.69l.74-2.95c.53-2.13,2.77-3.78,4.96-3.66l4.39.24c2.2.12,3.83,2.01,3.63,4.2l-.61,6.76c-.2,2.19.56,5.53,1.68,7.42l2.27,3.83c1.12,1.89,2.58,5.16,3.23,7.26l.64,2.06c.65,2.1,2.15,5.34,3.33,7.19l.39.61c1.18,1.86,3.2,4.83,4.49,6.62l29.97,41.54c1.29,1.78,4.01,2.57,6.05,1.74l9.2-3.72c2.04-.83,4.46-2.17,5.39-2.98s3.45-1.84,5.6-2.28l5.81-1.18c2.16-.44,5.72-.8,7.92-.8h2.88c2.2,0,5.54.94,7.42,2.08l1.28.78c1.88,1.15,4.97,3,6.86,4.11l82.7,48.75c1.9,1.12,4.49.56,5.76-1.23l9.01-12.67c1.28-1.79.78-4.19-1.1-5.33l-100.55-60.93c-1.88-1.14-4.18-2.34-5.1-2.67s-2.68.9-3.9,2.73l-12.57,18.86c-1.22,1.83-3.42,3.42-4.89,3.53s-2.89-.69-3.16-1.78.44-3.51,1.59-5.39l30.04-49.15c1.15-1.88,2.69-5.11,3.43-7.18l.28-.77c.74-2.07,1-5.53.58-7.69l-.05-.26c-.42-2.16.97-3.93,3.09-3.93s4.18,1.77,4.58,3.93l.33,1.82c.4,2.16.04,5.6-.79,7.64l-.53,1.3c-.83,2.04-2.45,5.24-3.6,7.12l-7.9,12.95c-1.15,1.88-2.48,4.39-2.97,5.59s-.18,2.89.69,3.76,3.13,2.51,5.01,3.64l101.09,60.63c1.89,1.13,3.69,1.61,4.01,1.07s-.96-1.93-2.83-3.09l-34.36-21.17c-1.87-1.15-3.92-3.21-4.56-4.57s-.71-3.69-.16-5.19,1.93-4.25,3.08-6.13l31.89-51.98c1.15-1.88,2.31-4.26,2.59-5.3s-.78-3.17-2.33-4.72l-2.74-2.74c-1.56-1.56-1.61-3.53-.11-4.39s3.8-.12,5.12,1.64l1.62,2.16c1.32,1.76,3.26,1.62,4.3-.32l.65-1.2c1.05-1.94,3.69-3.31,5.87-3.06l.62.07c2.19.25,3.03,1.99,1.88,3.86l-9.8,15.92c-1.15,1.87-.66,4.49,1.1,5.81l1.51,1.13c1.76,1.32,4.89,3.01,6.96,3.76l2.03.74c2.07.75,5.54,1.09,7.72.76l1.81-.28c2.17-.33,5.67-1.14,7.77-1.8l3.9-1.22c2.1-.66,5.47-1.92,7.48-2.8l4.36-1.9c2.02-.88,3.82-3.39,4.02-5.58l1.71-19.35c.19-2.19,2.15-3.82,4.34-3.62l.95.09c2.19.2,3.81,2.15,3.6,4.34l-8.15,84.47c-.21,2.19-.49,5.78-.62,7.97l-1.55,25.66c-.13,2.2-.04,5.78.21,7.97l1.12,9.89c.25,2.19.86,5.73,1.35,7.87l1.85,8.02c.49,2.14,1.47,5.61,2.16,7.69l1.12,3.36c.7,2.09,2.66,4.93,4.36,6.33l2.73,2.23c1.7,1.39,4.52,3.63,6.26,4.98l6.24,4.83c1.74,1.35,4.76,3.29,6.7,4.31l65.04,34.18c1.95,1.02,4.08.97,4.73-.12s1.15-2.7,1.09-3.57.87-3.11,2.04-4.96l43.93-69.24c1.18-1.86,2.5-4.49,2.94-5.86s.21-3.15-.5-3.97-2.82-2.43-4.7-3.58l-31.28-19.22c-1.87-1.15-4.84-3.12-6.58-4.38s-3.71-3.84-4.37-5.75-1.15-4.99-1.09-6.85.67-5.08,1.36-7.17l2.43-7.29c.7-2.09,2.1-5.39,3.12-7.34l1.06-2.03c1.02-1.95,3.1-4.62,4.63-5.93s4.53-2.79,6.67-3.29l.74-.17c2.14-.5,5.69-1,7.89-1.11l35.46-1.78c2.2-.11,5.51-.51,7.37-.9s4.22-1.54,5.26-2.58,2.82-3.42,3.96-5.3l8.74-14.39c1.14-1.88.57-4.41-1.26-5.62l-39.95-26.35c-1.84-1.21-1.55-2.38.64-2.6l3.94-.39c2.19-.22,5.52.53,7.41,1.66l34.21,20.49c1.89,1.13,4.9,3.1,6.69,4.37l1.02.72c1.79,1.27,4.68,3.43,6.41,4.78l44.53,34.83c1.73,1.36,4.04.9,5.12-1.02l13.26-23.42c1.08-1.91,2.11-4.42,2.28-5.57s-.36-2.58-1.18-3.18-2.98-2.1-4.8-3.33l-49.69-33.5c-1.82-1.23-2.11-3.16-.63-4.29s4.21-1.09,6.07.08l51.15,32.42c1.86,1.18,4.3,3.49,5.44,5.15s1.91,4.5,1.74,6.33-1.22,4.88-2.32,6.79l-15.93,27.56c-1.1,1.9-.65,4.65,1.01,6.1l30.06,26.37c1.65,1.45,4,1.14,5.22-.69l43.04-64.85c1.22-1.83.9-4.57-.69-6.08l-29.63-28.04c-1.6-1.51-1.11-2.75,1.09-2.75h1.18c2.2,0,5.38,1.15,7.07,2.56l28.35,23.67c1.69,1.41,4.25,1.21,5.7-.45l3.29-3.78c1.44-1.66,1.39-4.33-.11-5.93l-9.71-10.31c-1.51-1.6-.94-3.02,1.25-3.14l3.09-.18c2.2-.13,5.3,1.01,6.89,2.53l4.82,4.6c1.59,1.52,3.66,1.64,4.6.27s1.7-3.51,1.7-4.75-1.58-3.12-3.51-4.18l-7.95-4.37c-1.93-1.06-1.71-1.93.49-1.93h14.47c2.2,0,5.21,1.33,6.68,2.97l15.83,17.48c1.48,1.63,3.55,4.54,4.62,6.47l6.26,11.35c1.06,1.93,3.29,4.69,4.94,6.13l91.03,79.53c1.66,1.45,3.99,1.12,5.19-.72l64.67-99.55c1.2-1.84.69-4.36-1.14-5.59l-4.6-3.1c-1.82-1.23-4.57-3.53-6.1-5.11l-40.71-42.06"/><path class="cls-2" d="m994.36,10.52c-.92-2-1.41-5.41-1.08-7.59l.32-2.1c.33-2.18,1.38-5.58,2.33-7.56l9.31-19.37c.95-1.98,3.04-4.85,4.63-6.37l23.47-22.39c1.59-1.52,4.66-3.12,6.82-3.55l5.34-1.08c2.16-.44,5.49.1,7.4,1.18l76.29,43.17c1.91,1.08,4.82,3.18,6.45,4.65l.97.87c1.63,1.48,3.39,4.24,3.92,6.14s.13,5.07-.86,7.03l-26.77,52.69c-1,1.96-2.67,4.75-3.72,6.2s-3.6,3.24-5.67,3.98l-3.09,1.1c-2.07.74-5.57,1.35-7.77,1.35h-5.55c-2.2,0-5.68-.66-7.72-1.46l-6.13-2.4c-2.05-.8-5.31-2.31-7.25-3.35l-50.95-27.43c-1.94-1.04-4.96-2.98-6.72-4.3l-.84-.63c-1.76-1.32-4.21-3.89-5.44-5.72l-2.89-4.26c-1.23-1.82-3-4.95-3.92-6.94l-.87-1.89Z"/><path class="cls-3" d="m128.68,117.86c-.41-2.16.99-4.43,3.11-5.03l112.7-32.25c2.12-.61,5.58-1.58,7.7-2.17l13.2-3.67c2.12-.59,5.36-2.06,7.19-3.28l20.81-13.78c1.83-1.21,4.79-3.27,6.56-4.58l6.72-4.94c1.77-1.3,4.7-1.85,6.51-1.21s5.01,1.68,7.12,2.31l3.95,1.19c2.11.63,5.14,2.39,6.73,3.9l1.94,1.85c1.59,1.52,3.88,4.26,5.09,6.1l45.18,69.18c1.2,1.84,2.83,5.03,3.61,7.09l16.9,44.4c.78,2.06,1.93,5.47,2.55,7.58l9.36,31.81c.62,2.11,1.44,5.61,1.82,7.78l4.04,23.09c.38,2.17-1.09,4.2-3.27,4.51l-75.31,10.86c-2.18.31-4.27-1.2-4.65-3.37l-6.74-38.19c-.38-2.17-1.15-3.89-1.7-3.83s-1.32-1.66-1.71-3.83l-9.53-53.37c-.39-2.17-.5-4.29-.26-4.72s.13-2.51-.26-4.61-1.47-5.46-2.41-7.45l-.09-.2c-.94-1.99-2.79-4.93-4.12-6.52s-3.54-3.81-4.91-4.91-4.22-2.21-6.33-2.46-5.63-.3-7.82-.12l-1.25.1c-2.19.18-5.75.7-7.9,1.16l-18.39,3.96c-2.15.46-4.39,1.76-4.97,2.88s-.35,2.55.53,3.19,3.37.85,5.54.47l19.92-3.43c2.17-.37,5.58-.8,7.57-.94s4.83-.15,6.29,0,3.53,1.22,4.6,2.39,2.59,3.4,3.36,4.96,1.75,4.6,2.16,6.76l.46,2.41c.41,2.16-1.03,4.25-3.19,4.64l-28.53,5.14c-2.17.39-4.35,1.7-4.86,2.92s0,2.89,1.11,3.72,3.81,1.19,5.98.81l29.13-5.16c2.17-.38,4.14.46,4.38,1.87s.88,2.57,1.42,2.57,1.34,1.76,1.79,3.92l1.39,6.69c.45,2.15.29,4.17-.34,4.49s-.84,2.35-.46,4.51l12.6,71.37c.38,2.17-1.07,4.27-3.24,4.67l-41.72,7.75c-2.16.4-4.3-1.03-4.75-3.19l-16.29-78.08c-.45-2.15-2.03-5.24-3.52-6.87l-.71-.77c-1.48-1.62-4.4-3.56-6.47-4.29l-1.05-.37c-2.07-.74-5.57-1.31-7.77-1.28l-3.83.06c-2.2.04-5.76.46-7.9.94l-84.54,18.86c-2.15.48-4.24-.9-4.64-3.06l-15.58-82.92Z"/><path class="cls-1" d="m231.99,84.23c-2.12.6-3.36,2.82-2.76,4.94l14.23,50.49c.6,2.12,2.85,3.51,5.01,3.1l34.7-6.59c2.16-.41,5.72-.89,7.92-1.07l1.25-.1c2.19-.18,5.71-.12,7.82.12s4.95,1.35,6.33,2.46,4.28,2.22,6.47,2.48l8.22.98c2.18.26,5.71.94,7.83,1.51l12.14,3.27c2.12.57,4.28,2.79,4.78,4.93l28.12,118.84c.51,2.14-.86,4.17-3.03,4.52l-26.51,4.18c-2.17.34-3.41,2.34-2.76,4.44l23.06,73.88c.66,2.1,2.91,3.27,5,2.59l6.47-2.09c2.09-.68,4.38.48,5.07,2.57l27.46,82.37c.7,2.09,3.06,3.79,5.26,3.79h95.14c2.2,0,3.69-1.77,3.31-3.94l-21.93-125.32c-.38-2.17-2.46-4.29-4.61-4.72l-6.7-1.33c-2.16-.43-5.56-1.53-7.56-2.45l-28.74-13.25c-2-.92-4.49-3.26-5.54-5.19l-11.12-20.45c-1.05-1.93-2.38-5.25-2.95-7.38l-.21-.79c-.57-2.12-1.35-5.64-1.73-7.8l-4.04-23.09c-.38-2.17-1.2-5.67-1.82-7.78l-9.36-31.81c-.62-2.11-1.77-5.52-2.55-7.58l-16.9-44.4c-.78-2.06-2.41-5.25-3.61-7.09l-45.18-69.18c-1.2-1.84-3.49-4.59-5.09-6.1l-1.94-1.85c-1.59-1.52-4.61-3.3-6.71-3.97l-10.57-3.37c-2.1-.67-5.3-.2-7.11,1.05l-34.05,23.35c-1.81,1.24-5.03,2.75-7.15,3.35l-33.4,9.47Z"/><path class="cls-1" d="m1343.33-3.93c2.2-.05,4.22,1.7,4.48,3.88l.36,2.95c.26,2.18.83,5.74,1.26,7.9l1.25,6.35c.43,2.16,1.23,5.66,1.79,7.79l.44,1.67c.56,2.13-.54,2.97-2.45,1.88l-21.29-12.2c-1.91-1.09-5.11-2.73-7.12-3.63l-16.97-7.62c-2.01-.9-5.32-2.3-7.37-3.12l-7.92-3.15c-2.04-.81-1.92-1.52.28-1.56l53.24-1.15Z"/><path class="cls-1" d="m1219.81-4.74c-2.2-.08-2.35.58-.33,1.46l160.34,70.13c2.02.88,4.44.08,5.4-1.78s.8-3.64-.33-3.96-3.37-1.81-4.97-3.32l-23.4-22.08c-1.6-1.51-4.46-3.65-6.36-4.77l-22.15-12.96c-1.9-1.11-5.1-2.75-7.11-3.65l-24.22-10.78c-2.01-.89-5.32-2.32-7.35-3.16l-3.34-1.39c-2.03-.84-5.49-1.6-7.69-1.68l-58.49-2.07Z"/><path class="cls-1" d="m1129.66-34.38l250.52,135.82c1.93,1.05,3.88,1.18,4.32.3s-.28-3.05-1.6-4.81l-.34-.45c-1.32-1.76-2.5-4.72-2.61-6.57s-.02-5.16.21-7.35l.11-1.03c.23-2.19.84-5.69,1.34-7.78s-.74-4.51-2.76-5.39L1216.47-1.79c-2.02-.87-5.36-2.22-7.42-2.98l-79.39-29.61"/><path class="cls-1" d="m1353.13-4.4c-2.19.21-3.67,2.16-3.29,4.32l2.91,16.55c.38,2.17,1.21,5.66,1.85,7.77l.48,1.59c.64,2.11,1.38,4.9,1.66,6.22s1.82,3.61,3.44,5.1l21.35,19.67c1.62,1.49,3.87,2.78,5.01,2.88s3.18-1.17,4.54-2.81,3.69-4.3,5.18-5.92l3.51-3.84c1.49-1.62,4.23-3.89,6.11-5.04l4.74-2.91c1.87-1.15,5.19-2.36,7.37-2.68l.64-.09c2.18-.32,4.54-2.14,5.25-4.04s-.33-4.24-2.31-5.19l-3.59-1.73c-1.98-.95-5.17-2.62-7.08-3.71l-24.17-13.76c-1.91-1.09-4.77-3.23-6.35-4.76l-6.78-6.55c-1.58-1.53-4.67-2.6-6.86-2.39l-13.59,1.32Z"/><path class="cls-3" d="m21.2,147.98c-.5-2.14.83-4.38,2.95-4.96l90.3-25.01c2.12-.59,4.21.7,4.65,2.85l2.93,14.48c.44,2.16-.73,4.46-2.6,5.13s-3.94,1.75-4.6,2.41-1.31,2.67-1.43,4.45-1.97,3.69-4.1,4.24l-9.14,2.37c-2.13.55-3.87,1.78-3.87,2.74s-1.59,2.24-3.54,2.87-4.19.55-4.98-.15-3.16-.77-5.27-.15l-44.05,12.97c-2.11.62-5.4,1.33-7.31,1.58s-3.81-.67-4.22-2.04-1.16-4.24-1.66-6.38l-4.06-17.39Z"/><path class="cls-3" d="m150.15,211.55c-2.14.51-3.58,2.7-3.2,4.86l13.9,79.21c.38,2.17,2.47,3.65,4.64,3.3l105.16-17.05c2.17-.35,3.6-2.41,3.16-4.56l-12.18-60.91c-.43-2.16-1.3-5.65-1.92-7.76l-3.32-11.17c-.63-2.11-2.92-4.08-5.1-4.37l-10.92-1.48c-2.18-.29-5.72-.12-7.86.39l-82.36,19.54Z"/><path class="cls-2" d="m-5.14,356.8c-.28-1.36,1.27-2.71,3.45-3l41.8-5.58c2.18-.29,3.96-.91,3.96-1.38s1.38-1.12,3.07-1.45,4.02.48,5.19,1.79,3.16,2.38,4.43,2.38,4.05-.4,6.2-.89l16.04-3.67c2.14-.49,5.24-1.08,6.88-1.32s3.79.42,4.77,1.45,2.26,3.61,2.84,5.73l2.49,9.14c.58,2.12.55,5.2-.05,6.84s-2.41,2.25-4,1.36-3.23-3.39-3.65-5.55l-1.56-8.15c-.41-2.16-2.5-3.49-4.63-2.96l-16.08,4.02c-2.13.53-5.68.97-7.88.97h-1.71c-2.2,0-5-.69-6.21-1.53s-4-1.32-6.19-1.06l-4.83.58c-2.18.26-5.76.67-7.95.9l-31.9,3.41c-2.19.23-4.21-.69-4.49-2.04Z"/><path class="cls-3" d="m313.08,25.6l.44,2.29c.03.17.11.34.22.47l2.02,2.45c.63.76,1.86.32,1.86-.67v-2.15c0-.27-.1-.53-.29-.72l-2.45-2.59c-.72-.76-1.99-.11-1.8.92Z"/><path class="cls-3" d="m526.82,27.19c1.21-1.83,3.75-2.4,5.62-1.26l6.55,3.99c1.88,1.14,5.16,2.53,7.29,3.08l.11.03c2.13.55,5.66.8,7.85.55l2.24-.26c2.19-.25,5.65-1.1,7.71-1.89l7.67-2.95c2.05-.79,5.24-2.16,7.08-3.04s3.21.19,3.05,2.39l-.57,7.74c-.16,2.19-1.61,3.99-3.21,3.99s-3.89.65-5.09,1.46-3.23,2.57-4.51,3.93-3.16,4.07-4.18,6.02l-2.99,5.72c-1.02,1.95-2.76,5.1-3.86,7l-16.64,28.59c-1.11,1.9-3.58,2.58-5.5,1.5l-31.44-17.62c-1.92-1.08-3.95-2.68-4.51-3.56s-.43-2.71.29-4.07,2.3-3.97,3.52-5.81l23.52-35.53Z"/><path class="cls-3" d="m416.87,82.2c-1.81-1.25-1.95-1.88-.32-1.4s4.51,1.82,6.38,2.97l83.59,51.67c1.87,1.16,2.51,3.44,1.42,5.08s-3.47,1.96-5.28.71l-85.79-59.04Z"/><path class="cls-3" d="m579.73,48.99c.17-2.19-.97-2.98-2.52-1.75s-3.75,3.79-4.88,5.68l-2.04,3.43c-1.13,1.89-2.94,5-4.03,6.91l-22.48,39.4c-1.09,1.91-2.9,5.02-4.03,6.91l-1.81,3.04c-1.13,1.89-3.19,4.83-4.58,6.53l-3.43,4.2c-1.39,1.7-1.26,3.31.3,3.57s4.57.95,6.69,1.54l3.39.94c2.12.59,5.64,1.28,7.83,1.53l12.12,1.43c2.18.26,5.77.47,7.97.47h3.57c2.2,0,3.94-1.8,3.87-4l-.22-6.88c-.07-2.2-.06-5.8.03-7.99l.63-16.32c.09-2.2.29-5.79.46-7.98l3.16-40.66Z"/><path class="cls-3" d="m519.61,137.16c1.17-1.87,3.02-3.39,4.13-3.39s3.74.49,5.86,1.08l4.1,1.15c2.12.59,5.63,1.34,7.81,1.65l14.98,2.16c2.18.31,5.75.75,7.94.96l9.04.88c2.19.21,4.39,2.14,4.89,4.28l.77,3.31c.5,2.14,1.55,5.58,2.33,7.64l1.19,3.14c.78,2.06.51,4.27-.59,4.92s-3.15,2.57-4.56,4.26l-.57.68c-1.4,1.69-3.49,4.61-4.65,6.49l-29.8,48.43c-1.15,1.87-3.63,2.46-5.5,1.3l-49.15-30.49c-1.87-1.16-2.45-3.64-1.28-5.5l33.06-52.94Z"/><path class="cls-3" d="m586.94,172.45c1.71-1.38,4.52-1.39,6.24-.02l8.34,6.64c1.72,1.37,4.63,3.49,6.46,4.7l9.03,5.99c1.83,1.22,4.94,3.03,6.9,4.03l38.32,19.51c1.96,1,2.63,3.35,1.49,5.23l-37.99,62.57c-1.14,1.88-3.56,2.4-5.37,1.15l-70.53-48.62c-1.81-1.25-2.33-3.79-1.15-5.64l20.77-32.64c1.18-1.86,3.13-4.88,4.34-6.72l5.53-8.46c1.2-1.84,3.59-4.48,5.3-5.86l2.31-1.86Z"/><path class="cls-3" d="m676.29,221.59c-1.9-1.1-4.41-.48-5.58,1.39l-36.99,59.35c-1.16,1.87-2.84,5.04-3.72,7.06l-.15.34c-.88,2.02-.74,5.01.31,6.66s3.46,3.92,5.34,5.06l24.54,14.8c1.88,1.14,5.23,2.07,7.43,2.07h3.5c2.2,0,5.73-.49,7.85-1.09l3.32-.94c2.12-.6,5-2.47,6.41-4.16l3.27-3.92c1.41-1.69,3.39-4.67,4.41-6.62l25.54-48.98c1.02-1.95.29-4.45-1.61-5.55l-43.88-25.46Z"/><path class="cls-3" d="m942.83,33.34c-1.69-1.41-4.03-1.05-5.21.81l-41.85,65.93c-1.18,1.86-.82,4.59.8,6.08l60.48,55.52c1.62,1.49,3.9,1.18,5.06-.69l37.34-60.01c1.16-1.87,2.87-5.03,3.79-7.03l.56-1.22c.92-2,.61-5.08-.7-6.85l-1.35-1.83c-1.31-1.77-3.75-4.38-5.44-5.79l-53.5-44.91Z"/><path class="cls-3" d="m1478.9,25.89c.09-1.74-1.28-2.31-3.05-1.28s-4.33,3.28-5.7,5l-1.66,2.08c-1.37,1.72-.8,3.75,1.27,4.5l6.29,2.29c2.07.75,3.87-.43,4.01-2.62l.04-.58c.14-2.2-.11-4.5-.55-5.12s-.73-2.54-.64-4.28Z"/><path class="cls-3" d="m1496.31,33.92c-2.19-.21-4.12,1.42-4.3,3.61l-.11,1.44c-.17,2.19,1.42,4.48,3.53,5.07l4.82,1.36c2.12.6,5.63,1.33,7.81,1.63l13.8,1.9c2.18.3,3.96-1.25,3.96-3.45v-2.7c0-2.2-.43-4.51-.96-5.12s-2.75-1.29-4.95-1.5l-23.6-2.24Z"/><path class="cls-1" d="m1433.16,35.23c.56-1.31,2.67-1.68,4.69-.81l5.81,2.49c2.02.87,5.35,2.23,7.4,3.03l7.01,2.74c2.05.8,5.46,1.94,7.58,2.52l7.92,2.2c2.12.59,3.01,2.66,1.99,4.61l-3.06,5.8c-1.03,1.95-2.13,5.32-2.45,7.49l-.43,2.94c-.32,2.18-1,3.96-1.52,3.96s-2.17-1.32-3.67-2.92l-5.89-6.31c-1.5-1.61-3.87-4.31-5.27-6.02l-6.43-7.85c-1.39-1.7-3.95-4.21-5.68-5.57l-1.53-1.2c-1.73-1.36-4.12-2.98-5.31-3.59s-1.71-2.19-1.16-3.51Z"/><path class="cls-1" d="m1433.34,42.41c-1.69-1.41-3.94-.98-5,.95l-17.57,32.12c-1.06,1.93-.28,4.26,1.72,5.17l50.6,23.15c2,.92,3.64-.14,3.64-2.34v-6.61c0-2.2-.81-4.62-1.81-5.37s-2.07-2.03-2.39-2.82-.68-2.2-.8-3.11.43-2.97,1.23-4.56.29-4.27-1.12-5.96l-5.42-6.46c-1.41-1.69-3.75-4.42-5.2-6.08l-7.62-8.73c-1.45-1.66-4.01-4.16-5.71-5.57l-4.55-3.79Z"/><path class="cls-1" d="m1485.4,50.67c-2.1-.65-4.58.44-5.51,2.44l-2.57,5.5c-.93,1.99-2.08,5.38-2.56,7.53l-.71,3.16c-.48,2.15-1.55,5.14-2.39,6.65s-2.05,3.41-2.69,4.23-1.18,2.37-1.18,3.45.63,2.38,1.41,2.9,2.71,1.72,4.31,2.66,4.51,2.53,6.48,3.51l11.34,5.67c1.97.98,5.28,2.37,7.36,3.08l7.95,2.72c2.08.71,5.58,1.3,7.78,1.3h21.62c2.2,0,5.78-.28,7.95-.63l12.78-2.02c2.17-.34,5.67-1.15,7.78-1.8l5.67-1.73c2.1-.64,5.61-1.39,7.8-1.65l3.65-.44c2.18-.27,5.74-.16,7.91.23l3.41.62c2.16.39,5.14,1.13,6.6,1.65s4.46.91,6.66.87h.46c2.2-.05,5.34-1.07,6.98-2.28s4.35-3.36,6.03-4.78l2.04-1.73c1.68-1.42,4.64-3.43,6.59-4.46l2.96-1.57c1.94-1.03,4.91-2.19,6.59-2.58s2.98-2.5,2.9-4.7l-.46-11.59c-.09-2.2-1.96-3.99-4.16-3.99l-70.98.14c-2.2,0-5.8-.02-8-.06l-9.55-.17c-2.2-.04-5.78-.33-7.96-.64l-10.73-1.53c-2.18-.31-5.74-.86-7.91-1.21l-12.16-2c-2.17-.36-5.67-1.18-7.77-1.84l-15.71-4.89Z"/><path class="cls-1" d="m1643.17,67.31c-.08-2.2,1.65-4,3.85-4h117.69c2.2,0,4.37,1.76,4.81,3.92l9.77,47.12c.45,2.15.81,5.5.81,7.42s.32,5.28.71,7.44l.63,3.53c.39,2.17.97,5.19,1.29,6.71s-1.14,3.3-3.24,3.94l-1.99.6c-2.11.64-5.6,1.5-7.76,1.91l-4.42.84c-2.16.41-5.73.75-7.93.75h-103.37c-2.2,0-4.24-1.78-4.54-3.96l-3.3-24.23c-.3-2.18-.65-5.76-.77-7.96l-1.46-25.04c-.13-2.2-.3-5.79-.38-7.99l-.41-11.01Z"/><path class="cls-1" d="m1419.37,41.74c1.13-1.89.28-3.1-1.88-2.7l-.4.07c-2.16.41-5.45,1.7-7.32,2.87l-3.1,1.95c-1.86,1.17-4.57,3.48-6.03,5.13l-7.53,8.55c-1.45,1.65-3.48,4.6-4.5,6.55l-.74,1.41c-1.02,1.95-.23,4.32,1.76,5.27l5.97,2.85c1.99.95,4.53.18,5.66-1.71l18.09-30.25Z"/><path class="cls-1" d="m1388.03,72.85c-1.98-.96-4.02-.11-4.52,1.89s-1.14,5.42-1.39,7.61v.1c-.27,2.18-.48,5.19-.48,6.68s1.06,4.16,2.35,5.95l.21.29c1.29,1.78,3.2,1.65,4.25-.28l7.53-13.94c1.05-1.94.28-4.3-1.7-5.26l-6.25-3.03Z"/><path class="cls-1" d="m1396.02,108.48c-1.97-.97-2.67-3.31-1.55-5.2l10.84-18.29c1.12-1.89,3.68-2.71,5.69-1.81l52.08,23.31c2.01.9,3.65,3.43,3.65,5.63v17.64c0,2.2-1.74,3.55-3.87,3l-17.6-4.53c-2.13-.55-5.58-1.58-7.66-2.29l-15.74-5.35c-2.08-.71-5.4-2.08-7.38-3.05l-18.46-9.06Z"/><path class="cls-1" d="m1474.75,93.25c-2.01-.9-3.65.16-3.65,2.36v7.29c0,2.2.61,4.58,1.35,5.28s3.05,1.85,5.14,2.54l4.26,1.41c2.09.69,4.68,1.89,5.76,2.66s3.3,2.61,4.94,4.08l7,6.28c1.64,1.47,4.28,3.91,5.87,5.43l10.36,9.88c1.59,1.52,4.69,2.88,6.88,3.03l33.42,2.21c2.2.15,5.79.33,7.99.42l31.22,1.22c2.2.09,5.8.16,8,.16h39.71c2.2,0,3.82-1.79,3.61-3.98l-2.12-21.36c-.22-2.19-2.19-4.03-4.39-4.09l-4.34-.12c-2.2-.06-5.71-.65-7.81-1.32l-3.91-1.24c-2.1-.66-5.4-2.05-7.34-3.09l-3.45-1.84c-1.94-1.03-4.96-2.97-6.71-4.3l-1.29-.98c-1.75-1.33-4.88-3.02-6.95-3.75l-.22-.08c-2.07-.73-5.56-1.54-7.75-1.78l-1.08-.12c-2.19-.25-5.76-.22-7.94.06l-2.58.34c-2.18.28-5.7.99-7.83,1.57l-6.56,1.78c-2.12.58-5.63,1.38-7.79,1.79l-10.87,2.06c-2.16.41-5.73.74-7.93.73l-23.53-.09c-2.2,0-5.69-.63-7.76-1.38l-10.07-3.66c-2.07-.75-5.4-2.1-7.41-3l-14.23-6.39Z"/><path class="cls-1" d="m1472.8,115.79c-1.26-1.8-2.24-1.48-2.19.72l.38,15.21c.06,2.2,1.87,4.34,4.03,4.76l1.59.31c2.16.42,5.71,1.02,7.89,1.33l.75.11c2.18.31,2.89-.89,1.58-2.66l-1.8-2.44c-1.31-1.77-3.41-4.69-4.67-6.5l-7.57-10.84Z"/><path class="cls-1" d="m1476.05,114.57c-1.23-1.83-.53-2.74,1.55-2.02l3.5,1.21c2.08.72,5.1,2.53,6.71,4.02l23.6,21.88c1.61,1.5,1.14,2.6-1.06,2.45l-6.09-.41c-2.19-.15-5.6-.58-7.57-.96s-4.58-2.19-5.8-4.01l-14.86-22.16Z"/><path class="cls-1" d="m1171.16,15.22c1.21-1.84,3.8-2.51,5.75-1.49l85.88,44.77c1.95,1.02,5.13,2.71,7.06,3.76l101.82,55.42c1.93,1.05,2.61,3.47,1.5,5.37l-25.17,43.26c-1.11,1.9-3.01,4.95-4.23,6.79l-36.38,54.57c-1.22,1.83-3.47,4.62-5,6.2l-18.82,19.47c-1.53,1.58-4.25,3.91-6.06,5.17l-42.48,29.71c-1.8,1.26-4.13.71-5.18-1.22l-20.28-37.47c-1.05-1.93-2.79-5.09-3.86-7l-10.25-18.25c-1.08-1.92-3.01-4.95-4.3-6.73l-13.74-19.03c-1.29-1.78-3.66-4.46-5.28-5.96l-31.54-29.15c-1.62-1.49-4.25-3.95-5.85-5.45l-8.06-7.56c-1.6-1.51-3.6-4.4-4.44-6.44l-.92-2.24c-.84-2.03-2.8-4.97-4.35-6.53l-12.2-12.2c-1.56-1.56-1.84-4.33-.63-6.17l67.03-101.6Z"/><path class="cls-3" d="m947.52,26.45c-1.67-1.43-1.81-3.91-.3-5.51l3.53-3.75c1.51-1.6,4.09-1.71,5.73-.25l123.61,110.05c1.64,1.46,2.07,4.21.95,6.1l-49.79,84.16c-1.12,1.89-3.42,2.29-5.1.88l-55.93-46.81c-1.69-1.41-2.12-4.1-.96-5.97l37.35-60.45c1.16-1.87,2.72-5.09,3.47-7.16l2.33-6.42c.75-2.07.28-5.2-1.04-6.96l-4.63-6.18c-1.32-1.76-3.77-4.37-5.44-5.8l-53.79-45.93Z"/><path class="cls-3" d="m728.29,256.14c.99-1.96,3.41-2.74,5.36-1.72l53.2,27.63c1.95,1.01,2.65,3.4,1.55,5.31l-13.07,22.58c-1.1,1.9-1.71,4.57-1.36,5.92s1.75,2.11,3.11,1.68,3.42-2.3,4.59-4.16l13.85-21.96c1.17-1.86,3.74-2.56,5.69-1.56l68.71,35.18c1.96,1,5.1,2.76,6.97,3.91l25.78,15.76c1.88,1.15,2.51,3.64,1.41,5.55l-19.8,34.23c-1.1,1.9-3.46,3.87-5.24,4.37s-4.97.44-7.1-.12h-.03c-2.13-.58-5.29-2.14-7.03-3.49l-5.06-3.91c-1.74-1.35-4.66-3.45-6.48-4.68l-4.5-3.03c-1.82-1.23-4.86-3.16-6.74-4.3l-127.73-76.88c-1.88-1.13-2.61-3.67-1.62-5.63l15.54-30.65Z"/><path class="cls-3" d="m788.89,29.38c-1.74-1.35-4.09-.92-5.23.97l-10.24,16.93c-1.14,1.88-3.13,4.48-4.42,5.77s-4.09,2.8-6.22,3.35l-.18.05c-2.13.55-5.67,1.09-7.87,1.19l-41.92,1.97c-2.2.1-5.05.98-6.34,1.95s-3.24,3.32-4.33,5.23l-.73,1.27c-1.09,1.91-2.5,5.2-3.13,7.3l-1.22,4.08c-.63,2.11-1.15,5.35-1.15,7.21s1.26,4.37,2.79,5.58,4.32,3.14,6.2,4.29l28.7,17.55c1.88,1.15,4.71,3.33,6.31,4.85l.67.64c1.59,1.52,3.42,3.88,4.07,5.26s.98,3.68.73,5.14-1.31,4.22-2.38,6.14l-1.99,3.58c-1.07,1.92-2.91,5.02-4.09,6.87l-38.86,61.07c-1.18,1.86-3.01,3.84-4.06,4.4s-2.44,1.89-3.08,2.94.35,2.86,2.22,4.02l19.63,12.21c1.87,1.16,4.34.58,5.49-1.3l42.79-69.8c1.15-1.88,2.62-4.73,3.26-6.35s.78-4.06.29-5.43-2.45-3.38-4.36-4.47l-1.85-1.05c-1.91-1.08-3.48-3.16-3.48-4.61s.92-2.64,2.06-2.64,3.58.96,5.43,2.14l2.05,1.3c1.86,1.18,4.17,3.2,5.14,4.49s2.16,3.41,2.64,4.7.88,3.34.88,4.55-.59,3.26-1.32,4.55-2.23,3.9-3.34,5.8l-14.16,24.21c-1.11,1.9-.5,4.41,1.36,5.59l141.78,89.51c1.86,1.17,4.45.68,5.75-1.09l14.94-20.39c1.3-1.77,3.3-4.76,4.44-6.64l13.16-21.64c1.14-1.88,3-4.96,4.13-6.85l2.57-4.29c1.13-1.89.61-4.5-1.17-5.81l-6.7-4.94c-1.77-1.31-3.29-3.3-3.37-4.43s.78-2.32,1.91-2.64,3.58.37,5.44,1.54l66.92,42.12c1.86,1.17,4.42.66,5.69-1.14l10.94-15.48c1.27-1.8.94-4.43-.74-5.86l-177.1-150.99c-1.67-1.43-4.44-3.73-6.14-5.13l-22.87-18.71c-1.7-1.39-4.52-3.64-6.25-4.99l-20.11-15.64Z"/><path class="cls-3" d="m727.15,238.16c-1.93-1.05-2.57-3.44-1.41-5.31l19.85-32.11c1.16-1.87,3.63-2.44,5.49-1.27l142.21,89.34c1.86,1.17,2.53,3.71,1.47,5.64l-12.65,23.19c-1.05,1.93-3.5,2.65-5.43,1.61l-149.54-81.09Z"/><path class="cls-3" d="m954.34,222.93c-1.83-1.23-4.25-.69-5.39,1.19l-21.8,36.05c-1.14,1.88-3.08,4.91-4.31,6.74l-14.5,21.42c-1.23,1.82-3.14,4.87-4.25,6.77l-14.86,25.68c-1.1,1.9-.46,4.39,1.42,5.53l16.99,10.24c1.88,1.14,4.39.54,5.56-1.32l59.88-94.9c1.17-1.86.64-4.39-1.19-5.61l-17.55-11.79Z"/><path class="cls-3" d="m978.37,244.57c1.15-1.87,3.67-2.53,5.59-1.45l18.04,10.11c1.92,1.08,2.54,3.49,1.38,5.35l-58.66,94.52c-1.16,1.87-3.67,2.51-5.58,1.41l-17.59-10.05c-1.91-1.09-2.53-3.52-1.38-5.39l58.2-94.5Z"/><path class="cls-3" d="m962.93,9.31c-1.61-1.5-1.72-4.05-.23-5.67l.63-.69c1.49-1.62,4.08-1.8,5.77-.38l3.34,2.79c1.69,1.41,3.42,3.24,3.84,4.06s.77,2.14.77,2.94-.19,2.07-.41,2.83-1.04,1.95-1.8,2.63-2.71.01-4.32-1.48l-7.58-7.03Z"/><path class="cls-3" d="m983.67,28.89c-1.66-1.45-2.3-3.53-1.42-4.64s2.64-.96,3.91.33,2.67,3.42,3.09,4.74,1.31,3.12,1.96,4,2.45,2.88,3.99,4.45l5.11,5.21c1.54,1.57,1.44,1.67-.21.23l-16.43-14.32Z"/><path class="cls-3" d="m1085.38,120.15c1.6,1.51,3.21,2.32,3.57,1.82s-.71-2.1-2.38-3.53l-34.12-29.43c-1.67-1.44-1.72-1.38-.11.13l33.04,31.02Z"/><path class="cls-3" d="m1089.5,139.82c1.17-1.87,3.5-2.24,5.19-.83l9.89,8.24c1.69,1.41,4.73,3.27,6.75,4.14l2,.86c2.02.87,4.98,2.82,6.56,4.34l39.66,38c1.59,1.52,4.01,4.18,5.38,5.9l16.74,21.03c1.37,1.72,3.38,4.69,4.47,6.61l36.14,63.54c1.09,1.91.47,4.45-1.38,5.65l-36.72,23.72c-1.85,1.19-4.89,1.22-6.76.06l-90.95-56.58c-1.87-1.16-4.63-2.34-6.15-2.61s-4.28-1.45-6.14-2.62l-39.32-24.5c-1.87-1.16-2.44-3.64-1.27-5.51l55.9-89.44Z"/><path class="cls-3" d="m1799.94,144.93l1.39,1.39c1.17,1.17,1.16,3.08-.03,4.23l-1.61,1.56c-1.19,1.16-3.11,1.11-4.24-.11l-1.31-1.4c-1.09-1.17-1.06-2.98.06-4.11l1.53-1.55c1.16-1.17,3.05-1.18,4.22-.01Z"/><path class="cls-3" d="m1780.21,152.34c1.72-.63,3.04-.63,2.95,0s-1.49,1.15-3.12,1.15-1.55-.52.17-1.15Z"/><path class="cls-3" d="m1792.19,167.06c0-2.2,1.58-4,3.52-4h6.56c1.67,0,3.41,1.76,3.88,3.91l19.29,89.58c.46,2.15-.96,3.91-3.16,3.91h-9.04c-2.2,0-5.75.42-7.89.94l-10.5,2.54c-2.14.52-4.45,1.37-5.13,1.9s-1.15-.83-1.04-3.03l3.32-66.78c.11-2.2.2-5.8.2-8v-20.97Z"/><path class="cls-3" d="m1784.47,163.1c2.2-.02,4,1.77,4,3.97v22.63c0,2.2-.07,5.8-.15,8l-2.46,65.13c-.08,2.2-.69,4.49-1.34,5.1s-2.89,1.1-4.97,1.1-5.27-1-7.1-2.22l-2.45-1.63c-1.83-1.22-4.74-3.33-6.47-4.69l-27.09-21.27c-1.73-1.36-4.45-3.72-6.03-5.24l-32.58-31.2c-1.59-1.52-4.43-3.7-6.32-4.83l-2.25-1.36c-1.88-1.13-5.12-2.67-7.19-3.42l-6.27-2.26c-2.07-.75-4.94-1.79-6.38-2.32s-3.93-2.2-5.53-3.71l-4.4-4.16c-1.6-1.51-3.69-4.37-4.64-6.35l-.12-.24c-.95-1.98-2.05-5.03-2.43-6.78s1.11-3.19,3.31-3.21l128.86-1.04Z"/><path class="cls-3" d="m1002.25-.04c-.47,1.69-.86,4.21-.86,5.58s.72,4.15,1.6,6.17l.08.17c.88,2.02,2.71,5.08,4.06,6.82l2,2.55c1.36,1.73,4.06,3.99,6,5.03l55.3,29.36c1.94,1.03,5.22,2.4,7.29,3.03s5.55,1.15,7.75,1.15h5.67c2.2,0,5.79-.21,7.97-.47l.14-.02c2.18-.26,4.88-1.99,5.99-3.84s.43-4.21-1.51-5.24L1006.65-1.25c-1.94-1.03-3.92-.49-4.39,1.21Z"/><path class="cls-3" d="m1105.64,45.84c1.95,1.02,4.39.27,5.43-1.68l3.93-7.38c1.04-1.94.29-4.38-1.65-5.41l-97.07-51.68c-1.94-1.03-4.42-.31-5.5,1.6l-4.54,8.05c-1.08,1.92-.37,4.32,1.58,5.34l97.81,51.15Z"/><path class="cls-3" d="m1115.45,26.51c1.95,1.01,4.38.24,5.38-1.72l4.81-9.35c1.01-1.96.25-4.42-1.68-5.48l-91.92-50.24c-1.93-1.06-4.62-.5-5.98,1.23l-8.35,10.64c-1.36,1.73-.87,3.97,1.09,4.98l96.64,49.93Z"/><path class="cls-3" d="m1131.23,4.1c-.79,1.54-3.04,1.96-4.99.94l-91.85-48.11c-1.95-1.02-1.97-2.73-.04-3.79l8.97-4.95c1.93-1.06,5.07-1.05,6.99.04l78.88,44.57c1.92,1.08,3.48,3.44,3.48,5.24s-.65,4.53-1.44,6.06Z"/><path class="cls-3" d="m1367.31,159.8c-1.92-1.08-2.61-3.54-1.54-5.46l15.19-27.27c1.07-1.92,3.62-2.83,5.67-2.03l31.08,12.27c2.05.81,5.4,2.12,7.45,2.91l18.84,7.28c2.05.79,5.49,1.83,7.64,2.31l32.08,7.15c2.15.48,5.69,1.11,7.87,1.4l22.64,3.05c2.18.29,5.76.62,7.96.73l35.8,1.77c2.2.11,5.79.22,7.99.25l63.55.77c2.2.03,4,1.85,4,4.05v28.79c0,1.22-.68,3.13-1.52,4.23s-2.37,3.59-3.41,5.53l-10.97,20.48c-1.04,1.94-.82,4.98.48,6.75l.04.05c1.3,1.77,1.74,4.91.97,6.98l-8.71,23.47c-.77,2.06-2.97,2.88-4.89,1.82l-82.1-45.32c-1.93-1.06-4.76-2.42-6.29-3.02s-3.97-.89-5.42-.65-3.76,1.21-5.13,2.17-4,2.72-5.84,3.93l-.25.16c-1.84,1.21-4.61,2.49-6.16,2.85s-4.28.31-6.07-.11-4.82-1.64-6.73-2.73l-114.23-64.57Z"/><path class="cls-3" d="m1641.7,168.34c-.07-2.2,1.05-4,2.48-4s3.14,1.72,3.81,3.81l.05.17c.67,2.1,2.13,5.36,3.24,7.26l.39.66c1.12,1.89,3.34,4.69,4.93,6.2l4.73,4.51c1.59,1.52,4.55,3.46,6.58,4.32l11.32,4.8c2.03.86,5.26,2.42,7.2,3.47l2.99,1.63c1.93,1.05,4.82,3.15,6.42,4.66l32.19,30.51c1.6,1.51,3.46,3.56,4.14,4.55s1.8,3.5,2.49,5.59l.96,2.92c.69,2.09,1.39,5.59,1.55,7.79v.19c.18,2.19.15,4.88-.05,5.97s-1.15,3.04-2.1,4.33-3.07,2.91-4.7,3.59-4.42,2.3-6.19,3.61l-5.68,4.17c-1.77,1.3-3.78,1.51-4.46.45s-2.84-2.73-4.8-3.73l-81.85-41.67c-1.96-1-2.74-3.41-1.73-5.37l10.07-19.5c1.01-1.95,2.5-4.58,3.32-5.84s1.89-4.04,2.38-6.19l.2-.86c.49-2.14.84-5.7.77-7.9l-.62-20.1Z"/><path class="cls-3" d="m1625.74,246.55c.76-2.06,3.05-3.07,5.08-2.24l4.9,2c2.04.83,3.95,1.14,4.26.68s2.13.05,4.04,1.13l6.17,3.48c1.92,1.08,3.48,2.37,3.48,2.87s1.6,1.74,3.55,2.75l45.33,23.57c1.95,1.01,3.89,2.51,4.32,3.31s.77,2.95.77,4.75-.53,4.76-1.19,6.57-2.17,4.8-3.36,6.65l-5.87,9.08c-1.19,1.85-3.3,4.71-4.69,6.37s-3.94,4.11-5.68,5.46l-54.5,42.22c-1.74,1.35-4.74,1.59-6.67.53l-46.95-25.66c-1.93-1.06-2.54-3.43-1.35-5.28l30.77-47.94c1.19-1.85,3.07-4.92,4.18-6.82l.86-1.48c1.11-1.9,2.64-5.14,3.4-7.21l9.12-24.79Z"/><path class="cls-1" d="m1864.24,371.67c-1.94-1.03-4.37-.29-5.4,1.66l-12.68,24.06c-1.03,1.95-.73,3.54.65,3.54s3.34-1.6,4.35-3.56l4.35-8.46c1.01-1.96,2.33-3.24,2.95-2.86s2.02-.86,3.11-2.77l1.05-1.83c1.1-1.91,3.61-2.67,5.58-1.69l12.78,6.33c1.97.98,2.76,3.37,1.75,5.33l-5.28,10.23c-1.01,1.95-.05,3.31,2.13,3.01l12.58-1.72c2.18-.3,4.74-2.17,5.68-4.15l1.79-3.77c.94-1.99.13-4.46-1.82-5.49l-33.58-17.87Z"/><path class="cls-1" d="m1076.93,299.81c1.11-1.9,3.5-2.45,5.33-1.22l11.04,7.46c1.82,1.23,2.38,3.78,1.25,5.66l-22.97,38.04c-1.14,1.88-3.37,2.18-4.95.66l-9.41-9.02c-1.59-1.52-1.98-4.32-.87-6.23l20.59-35.35Z"/><path class="cls-4" d="m1177.98,14.29c.55,8.02,1.56,18.97,3.99,26.63.46,1.45,2.2,4.2,3.23,5.32,0,0,8.66.61,12.89,9.21,1.32,2.69,1.61,9.8,1.44,11.89-.73,9.26-13.08,9.17-16.59,5.73-7.67-7.49-3.03-20.07-1.51-22.97,1.18-2.24,1.13-3.91,7.25-4.28,5.56-.34,12.7,1.04,17.79,3.29,12.19,5.39,20.34,17.63,32.57,22.93,4.84,2.09,12.3,5.55,17.35,7.07s13.13,2.63,16.39,6.77c-.57-.15,11.57,11.71,22.74,13.57s23.27,5.77,32.91,12.34c4.04,2.75,7.89,6.02,10.29,10.28,3.62,6.43,4.65,26.03-10.12,26.94-4.49.27-11.1-1.51-12.96-6.03-1.97-4.79-4.31-11.35,2.56-16.73,4.05-3.16,11.56-4.32,16.34-2.43,12.6,4.99,7.63,22.41,2.43,30.72-1.68,2.68-3.81,5.05-5.93,7.4-5.5,6.1-8.32,12.02-14.54,17.39s-11.55,5.57-19.87,5.7-11.42-3.15-19.21-6.08c-2.76-1.04-7.63-2.79-15.76-2.23-16.71,1.16-32.92-1.12-47.98-6.81-4.74-6.21-11.5-9.6-16.55-15.56-4.67-5.51-7.28-12.41-10.4-18.92-3.13-6.51-4.59-11.38-8.3-14.46s-14.68-9.32-19.68-9.38c-32.74-.41-42.59,8.85-51.72,13.68"/><path class="cls-4" d="m1115.76,120.25c9.68,9.91,19.44,17.88,30.22,26.57,3.33,2.68,12.9,11.96,14.88,13.28,11.09,7.4,40.16,8.9,52.82,9.81"/><path class="cls-4" d="m1132.5,113.87c5.09-8.39,5.55-7.81,8.97-13.45,2.14-3.53,1.77-4.25,3.54-7.97,3.91-8.18,7.92-16.59,12-24.68s7.98-16.71,28.18-21.53"/><path class="cls-4" d="m1184.05,73.88c1.15,2.73,1.15,4.81,1.15,7.28,0,4.58-2.27,9.21-.47,13.42,1.88,4.39,10.11,10.96,13.24,14.56,7.8,8.98,15.47,28.4,16.63,31.13,2.13,5.02.63,7.54-3.24,13.35-1.22,1.82-.97,6.93-8.92,15.36"/><path class="cls-4" d="m1315.64,142.97c-12.41,1.29-27.84-8.61-31.49-11.41-11.69-8.98-16.79-12.24-31.04-15.99-4.52-1.19-27.62-7.34-31.59-9.52-15-8.23-23.31-13.83-24.35-26.54-.28-3.48,1.63-10.54,3.74-13.32,2.02-2.67,6.16-3.37,9.33-4.45,4.71-1.6,11.83.11,16.36,2.16"/><path class="cls-4" d="m1370.81,117.22c-5.65,4.36-13.92,7.05-17.07,7.96-5.81,1.68-7.38,5.36-13.06,3.28"/><path class="cls-4" d="m325.18,50.73c-1.85,12.55,72.46,319.1,81.56,349.27,2.08,6.89,1.79,17.48,7.92,21.26,7.58,4.67,26.08,1.01,33-4.6,12.31-9.97,15.13-23.36,23.32-36.92,12.72-21.06,15.54-63.79,4.41-69.98"/><path class="cls-4" d="m370.51-4.9c13.26,9.38,14.62,29.24,2.75,39.98-7.39,6.68-17.62,9.24-27.99,11.78"/><line class="cls-4" x1="496.36" y1="416.53" x2="481.28" y2="321.83"/><polyline class="cls-4" points="1311.06 222.17 1272.58 198.53 1232.87 175.2"/><path class="cls-1" d="m1642.23,88.51c-.13-2.2-1.99-3.62-4.15-3.16l-.64.14c-2.15.46-5.44,1.79-7.3,2.96l-1.67,1.04c-1.86,1.17-4.8,3.24-6.52,4.61l-7.24,5.74c-1.72,1.37-4.3,2.73-5.74,3.04s-1.04,1.44.87,2.53l3.76,2.14c1.91,1.09,5.15,2.63,7.2,3.43l7.25,2.81c2.05.8,5.53,1.45,7.73,1.45h4.01c2.2,0,3.89-1.8,3.77-3.99l-1.33-22.73Z"/></g></svg>