<svg width="24" height="24" viewBox="0 0 24 24" fill="none" xmlns="http://www.w3.org/2000/svg">
<g clip-path="url(#clip0_1423_12277)">
<path d="M9.59185 6.26673C9.85102 6.26673 10.0602 6.05673 10.0602 5.79839C10.0602 5.54006 9.85018 5.33006 9.59185 5.33006C9.58935 5.33006 9.58685 5.33006 9.58352 5.33006C9.45852 5.33006 9.34602 5.38339 9.26768 5.46756C9.18602 5.55339 9.13518 5.67006 9.13518 5.79839C9.13518 5.92673 9.18518 6.04339 9.26768 6.12923C9.34685 6.21423 9.45935 6.26756 9.58435 6.26756H9.59352H9.59268L9.59185 6.26673ZM14.6643 6.26673H14.6727C14.7977 6.26673 14.9102 6.21339 14.9885 6.12923C15.0702 6.04339 15.121 5.92673 15.121 5.79839C15.121 5.67006 15.071 5.55339 14.9885 5.46756C14.9094 5.38256 14.7969 5.32923 14.6719 5.32923C14.6685 5.32923 14.666 5.32923 14.6627 5.32923H14.6635C14.4044 5.32923 14.1952 5.53923 14.1952 5.79756C14.1952 6.05589 14.4052 6.26589 14.6635 6.26589L14.6643 6.26673ZM4.90518 8.47839C5.58102 8.48173 6.12852 9.02839 6.13102 9.70423V14.8726V14.8959C6.13102 15.2292 5.99518 15.5317 5.77602 15.7501C5.56185 15.9726 5.26185 16.1109 4.92852 16.1109C4.92018 16.1109 4.91185 16.1109 4.90268 16.1109H4.90435C4.90268 16.1109 4.90018 16.1109 4.89768 16.1109C4.21768 16.1109 3.66602 15.5592 3.66602 14.8792C3.66602 14.8767 3.66602 14.8751 3.66602 14.8726V9.70423C3.66602 9.69923 3.66602 9.69256 3.66602 9.68673C3.66602 9.35339 3.80435 9.05256 4.02685 8.83756C4.24352 8.61589 4.54602 8.47839 4.88102 8.47839H4.90518H4.90435H4.90518ZM17.6452 8.70673V16.7117V16.7359C17.6452 17.0934 17.4977 17.4176 17.2602 17.6492C17.0302 17.8867 16.7085 18.0342 16.3527 18.0342C16.346 18.0342 16.3402 18.0342 16.3335 18.0342H16.3343H15.4327V20.7626C15.4327 21.4459 14.8785 22.0009 14.1944 22.0009C13.5102 22.0009 12.956 21.4467 12.956 20.7626V18.0342H11.2977V20.7626V20.7692C11.2977 21.4492 10.746 22.0009 10.066 22.0009C10.0635 22.0009 10.061 22.0009 10.0593 22.0009C10.0543 22.0009 10.0477 22.0009 10.0418 22.0009C9.70852 22.0009 9.40768 21.8626 9.19268 21.6401C8.97018 21.4226 8.83185 21.1201 8.83185 20.7851C8.83185 20.7776 8.83185 20.7692 8.83185 20.7617V20.7626L8.82018 18.0342H7.93185C7.92935 18.0342 7.92602 18.0342 7.92352 18.0342C7.19852 18.0342 6.61018 17.4459 6.61018 16.7209C6.61018 16.7176 6.61018 16.7151 6.61018 16.7117V16.7126V8.70756L17.6452 8.70673ZM14.8569 3.84006C15.7044 4.27339 16.3985 4.90006 16.9002 5.66506L16.9127 5.68506C17.3952 6.40673 17.6818 7.29506 17.6818 8.24923V8.27589V8.27423H6.56352C6.56352 8.26673 6.56352 8.25756 6.56352 8.24839C6.56352 7.29339 6.85102 6.40589 7.34352 5.66673L7.33268 5.68339C7.84852 4.89673 8.54685 4.27006 9.36935 3.85256L9.39935 3.83839L8.54602 2.26339C8.52518 2.23673 8.51268 2.20339 8.51268 2.16673C8.51268 2.10339 8.55018 2.04839 8.60435 2.02339H8.60518C8.63018 2.00756 8.66102 1.99756 8.69435 1.99756C8.76102 1.99756 8.81935 2.03756 8.84602 2.09423L8.84685 2.09506L9.71352 3.68173C10.4252 3.36256 11.2552 3.17673 12.1293 3.17673C13.0035 3.17673 13.8335 3.36256 14.5835 3.69673L14.5452 3.68173L15.4118 2.09506C15.4385 2.03673 15.4969 1.99756 15.5635 1.99756C15.5968 1.99756 15.6269 2.00756 15.6535 2.02339H15.6527C15.7077 2.04839 15.746 2.10339 15.746 2.16756C15.746 2.20423 15.7335 2.23756 15.7127 2.26423L14.8569 3.84006ZM20.5902 9.70673V14.8751V14.8817C20.5902 15.5617 20.0385 16.1134 19.3585 16.1134C19.356 16.1134 19.3535 16.1134 19.3518 16.1134C19.3468 16.1134 19.3402 16.1134 19.3343 16.1134C19.001 16.1134 18.7002 15.9751 18.4852 15.7526C18.2627 15.5351 18.1243 15.2326 18.1243 14.8976C18.1243 14.8901 18.1243 14.8817 18.1243 14.8742V14.8751V9.70673C18.1243 9.69923 18.1243 9.69089 18.1243 9.68256C18.1243 9.35006 18.2627 9.04923 18.4852 8.83589C18.701 8.61673 19.001 8.48089 19.3327 8.48089H19.3527H19.3518H19.3752C19.7085 8.48089 20.011 8.61673 20.2293 8.83589C20.4518 9.05006 20.5902 9.35006 20.5902 9.68339V9.70589V9.70506V9.70673Z" fill="#585858"/>
</g>
<defs>
<clipPath id="clip0_1423_12277">
<rect width="20" height="20" fill="white" transform="translate(2 2)"/>
</clipPath>
</defs>
</svg>
