<svg width="24" height="24" viewBox="0 0 24 24" fill="none" xmlns="http://www.w3.org/2000/svg">
<path fill-rule="evenodd" clip-rule="evenodd" d="M21.9 8.89L20.85 4.52C20.63 3.62 19.85 3 18.94 3H16.73H14.72H13H11H9.28001H7.26001H5.05001C4.15001 3 3.36001 3.63 3.15001 4.52L2.10001 8.89C1.86001 9.91 2.08001 10.95 2.72001 11.77C2.76801 11.836 2.82681 11.8912 2.88561 11.9464C2.92481 11.9832 2.96401 12.02 3.00001 12.06V19C3.00001 20.1 3.90001 21 5.00001 21H9H10C10.5523 21 11 20.5523 11 20V17C11 16.4477 11.4477 16 12 16C12.5523 16 13 16.4477 13 17V20C13 20.5523 13.4477 21 14 21H15H19C20.1 21 21 20.1 21 19V12.06C21.0296 12.0304 21.0615 12.0007 21.0936 11.9707C21.1592 11.9096 21.2264 11.8471 21.28 11.78C21.92 10.96 22.15 9.91 21.9 8.89ZM15 19H18C18.55 19 19 18.55 19.01 18V12.97C18.9819 12.9735 18.9551 12.9782 18.9286 12.9829C18.8797 12.9916 18.8319 13 18.78 13C17.91 13 17.12 12.64 16.54 12.05C15.94 12.65 15.14 13 14.3 13C13.4 13 12.6 12.64 12.01 12.07C11.43 12.64 10.65 13 9.78001 13C8.87001 13 8.07001 12.65 7.47001 12.05C6.89001 12.64 6.10001 13 5.23001 13C5.17808 13 5.13036 12.9916 5.08139 12.9829C5.05492 12.9782 5.02808 12.9735 5.00001 12.97V18C5.00001 18.55 5.45001 19 6.00001 19H9V16C9 14.8954 9.89543 14 11 14H13C14.1046 14 15 14.8954 15 16V19ZM7.02001 5L6.44001 9.86C6.36001 10.51 5.84001 11 5.23001 11C4.74001 11 4.43001 10.71 4.30001 10.53C4.04001 10.2 3.95001 9.77 4.05001 9.36L5.05001 5H7.02001ZM18.91 4.99L19.96 9.36C20.06 9.78 19.97 10.2 19.71 10.53C19.57 10.71 19.27 11 18.77 11C18.16 11 17.63 10.51 17.56 9.86L16.98 5L18.91 4.99ZM15.51 9.52C15.56 9.91 15.44 10.3 15.18 10.59C14.95 10.85 14.63 11 14.22 11C13.55 11 13 10.41 13 9.69V5H14.96L15.51 9.52ZM11 9.69C11 10.41 10.45 11 9.71001 11C9.37001 11 9.06001 10.85 8.82001 10.59C8.57001 10.3 8.45001 9.91 8.49001 9.52L9.04001 5H11V9.69Z" fill="#4F4F4F"/>
</svg>
