<svg width="328" height="256" viewBox="0 0 328 256" fill="none" xmlns="http://www.w3.org/2000/svg">
<g clip-path="url(#clip0_1866_19884)">
<ellipse cx="72.9998" cy="204.458" rx="11.0833" ry="3.95833" fill="#FFDC7D"/>
<path fill-rule="evenodd" clip-rule="evenodd" d="M61.917 186.25C61.917 180.122 66.8728 175.167 73.0003 175.167C79.1278 175.167 84.0837 180.122 84.0837 186.25C84.0837 192.852 77.0853 201.957 74.2195 205.424C73.5862 206.184 72.4303 206.184 71.797 205.424C68.9153 201.957 61.917 192.852 61.917 186.25ZM78.3959 180.36C79.8961 181.032 80.917 182.487 80.917 184.835V191H77.7562V185.14C77.7562 184.707 77.6908 184.348 77.5746 184.06C77.3194 183.429 76.8139 183.133 76.1693 183.131C75.5427 183.133 75.047 183.418 74.7868 184.015C74.6576 184.311 74.5856 184.684 74.5856 185.138V191H74.5758H71.4248H71.415V185.14C71.415 184.73 71.3561 184.388 71.2514 184.108C71.0027 183.446 70.489 183.133 69.8281 183.131C69.1933 183.133 68.6927 183.423 68.4358 184.036C68.3131 184.329 68.2444 184.694 68.2444 185.138V190.996H65.0837V184.835C65.0837 182.487 66.1045 181.032 67.6064 180.362L67.608 180.359C67.7209 180.307 67.8387 180.262 67.9565 180.221C67.9761 180.214 67.9958 180.207 68.017 180.2C68.1479 180.155 68.2821 180.116 68.4178 180.082C68.4203 180.081 68.4228 180.081 68.4252 180.081C68.4277 180.08 68.4301 180.08 68.4326 180.079C68.5684 180.045 68.7074 180.018 68.8481 179.995C68.8555 179.994 68.8628 179.993 68.8702 179.991C68.8776 179.99 68.8849 179.989 68.8923 179.988C69.0314 179.966 69.1737 179.949 69.3193 179.938L69.3913 179.933C69.5336 179.924 69.6792 179.916 69.8265 179.916H69.8346C71.0518 179.916 72.161 180.253 73.0003 180.949C73.8412 180.253 74.9504 179.916 76.1676 179.916H76.1758C76.3263 179.916 76.4752 179.924 76.6225 179.933C76.6312 179.933 76.6396 179.934 76.6478 179.934C76.6564 179.935 76.6648 179.935 76.6732 179.936C76.8237 179.949 76.9709 179.965 77.1165 179.988C77.1206 179.989 77.1243 179.989 77.128 179.99C77.1317 179.99 77.1353 179.99 77.1394 179.991C77.4339 180.04 77.7186 180.109 77.9918 180.202C78 180.204 78.0077 180.207 78.0155 180.21C78.0233 180.212 78.0311 180.215 78.0392 180.218C78.1603 180.261 78.2781 180.305 78.3943 180.357L78.3959 180.36Z" fill="#FFC627"/>
<ellipse cx="290" cy="179.458" rx="11.0833" ry="3.95833" fill="#FFDC7D"/>
<path fill-rule="evenodd" clip-rule="evenodd" d="M278.917 161.25C278.917 155.122 283.873 150.167 290 150.167C296.128 150.167 301.084 155.122 301.084 161.25C301.084 167.852 294.085 176.957 291.219 180.424C290.586 181.184 289.43 181.184 288.797 180.424C285.915 176.957 278.917 167.852 278.917 161.25ZM295.396 155.36C296.896 156.032 297.917 157.487 297.917 159.835V166H294.756V160.14C294.756 159.707 294.691 159.348 294.575 159.06C294.319 158.429 293.814 158.133 293.169 158.131C292.543 158.133 292.047 158.418 291.787 159.015C291.658 159.311 291.586 159.684 291.586 160.138V166H291.576H288.425H288.415V160.14C288.415 159.73 288.356 159.388 288.251 159.108C288.003 158.446 287.489 158.133 286.828 158.131C286.193 158.133 285.693 158.423 285.436 159.036C285.313 159.329 285.244 159.694 285.244 160.138V165.996H282.084V159.835C282.084 157.487 283.105 156.032 284.606 155.362L284.608 155.359C284.721 155.307 284.839 155.262 284.956 155.221C284.976 155.214 284.996 155.207 285.017 155.2C285.148 155.155 285.282 155.116 285.418 155.082C285.42 155.081 285.423 155.081 285.425 155.081C285.428 155.08 285.43 155.08 285.433 155.079C285.568 155.045 285.707 155.018 285.848 154.995C285.855 154.994 285.863 154.993 285.87 154.991C285.878 154.99 285.885 154.989 285.892 154.988C286.031 154.966 286.174 154.949 286.319 154.938L286.391 154.933C286.534 154.924 286.679 154.916 286.826 154.916H286.835C288.052 154.916 289.161 155.253 290 155.949C290.841 155.253 291.95 154.916 293.168 154.916H293.176C293.326 154.916 293.475 154.924 293.622 154.933C293.631 154.933 293.64 154.934 293.648 154.934C293.656 154.935 293.665 154.935 293.673 154.936C293.824 154.949 293.971 154.965 294.117 154.988C294.121 154.989 294.124 154.989 294.128 154.99C294.132 154.99 294.135 154.99 294.139 154.991C294.434 155.04 294.719 155.109 294.992 155.202C295 155.204 295.008 155.207 295.016 155.21C295.023 155.212 295.031 155.215 295.039 155.218C295.16 155.261 295.278 155.305 295.394 155.357L295.396 155.36Z" fill="#FFC627"/>
<ellipse cx="194" cy="122.458" rx="11.0833" ry="3.95833" fill="#FFDC7D"/>
<path fill-rule="evenodd" clip-rule="evenodd" d="M182.917 104.25C182.917 98.1223 187.873 93.1665 194 93.1665C200.128 93.1665 205.084 98.1223 205.084 104.25C205.084 110.852 198.085 119.957 195.219 123.424C194.586 124.184 193.43 124.184 192.797 123.424C189.915 119.957 182.917 110.852 182.917 104.25ZM199.396 98.3604C200.896 99.0325 201.917 100.487 201.917 102.835V109H198.756V103.14C198.756 102.707 198.691 102.348 198.575 102.06C198.319 101.429 197.814 101.133 197.169 101.131C196.543 101.133 196.047 101.418 195.787 102.015C195.658 102.311 195.586 102.684 195.586 103.138V109H195.576H192.425H192.415V103.14C192.415 102.73 192.356 102.388 192.251 102.108C192.003 101.446 191.489 101.133 190.828 101.131C190.193 101.133 189.693 101.423 189.436 102.036C189.313 102.329 189.244 102.694 189.244 103.138V108.996H186.084V102.835C186.084 100.487 187.105 99.0325 188.606 98.3622L188.608 98.3586C188.721 98.3069 188.839 98.2623 188.956 98.2213C188.976 98.2142 188.996 98.2071 189.017 98.2C189.148 98.1554 189.282 98.1162 189.418 98.0823C189.42 98.0814 189.423 98.081 189.425 98.0805C189.428 98.0801 189.43 98.0796 189.433 98.0787C189.568 98.0449 189.707 98.0181 189.848 97.9949C189.855 97.994 189.863 97.9927 189.87 97.9914C189.878 97.99 189.885 97.9887 189.892 97.9878C190.031 97.9664 190.174 97.9486 190.319 97.9379L190.391 97.9325C190.534 97.9236 190.679 97.9165 190.826 97.9165H190.835C192.052 97.9165 193.161 98.2534 194 98.9487C194.841 98.2534 195.95 97.9165 197.168 97.9165H197.176C197.326 97.9165 197.475 97.9236 197.622 97.9325C197.631 97.9334 197.64 97.9339 197.648 97.9343C197.656 97.9347 197.665 97.9352 197.673 97.9361C197.824 97.9486 197.971 97.9646 198.117 97.9878C198.121 97.9887 198.124 97.9891 198.128 97.9896C198.132 97.99 198.135 97.9905 198.139 97.9914C198.434 98.0395 198.719 98.109 198.992 98.2017C199 98.2044 199.008 98.2071 199.016 98.2098C199.023 98.2124 199.031 98.2151 199.039 98.2178C199.16 98.2606 199.278 98.3051 199.394 98.3568L199.396 98.3604Z" fill="#FFC627"/>
<ellipse cx="38.9998" cy="122.458" rx="11.0833" ry="3.95833" fill="#FFDC7D"/>
<path fill-rule="evenodd" clip-rule="evenodd" d="M27.917 104.25C27.917 98.1223 32.8728 93.1665 39.0003 93.1665C45.1278 93.1665 50.0837 98.1223 50.0837 104.25C50.0837 110.852 43.0853 119.957 40.2195 123.424C39.5862 124.184 38.4303 124.184 37.797 123.424C34.9153 119.957 27.917 110.852 27.917 104.25ZM44.3959 98.3604C45.8961 99.0325 46.917 100.487 46.917 102.835V109H43.7562V103.14C43.7562 102.707 43.6908 102.348 43.5746 102.06C43.3194 101.429 42.8139 101.133 42.1693 101.131C41.5427 101.133 41.047 101.418 40.7868 102.015C40.6576 102.311 40.5856 102.684 40.5856 103.138V109H40.5758H37.4248H37.415V103.14C37.415 102.73 37.3561 102.388 37.2514 102.108C37.0027 101.446 36.489 101.133 35.8281 101.131C35.1933 101.133 34.6927 101.423 34.4358 102.036C34.3131 102.329 34.2444 102.694 34.2444 103.138V108.996H31.0837V102.835C31.0837 100.487 32.1045 99.0325 33.6064 98.3622L33.608 98.3586C33.7209 98.3069 33.8387 98.2623 33.9565 98.2213C33.9761 98.2142 33.9958 98.2071 34.017 98.2C34.1479 98.1554 34.2821 98.1162 34.4178 98.0823C34.4203 98.0814 34.4228 98.081 34.4252 98.0805C34.4277 98.0801 34.4301 98.0796 34.4326 98.0787C34.5684 98.0449 34.7074 98.0181 34.8481 97.9949C34.8555 97.994 34.8628 97.9927 34.8702 97.9914C34.8776 97.99 34.8849 97.9887 34.8923 97.9878C35.0314 97.9664 35.1737 97.9486 35.3193 97.9379L35.3913 97.9325C35.5336 97.9236 35.6792 97.9165 35.8265 97.9165H35.8346C37.0518 97.9165 38.161 98.2534 39.0003 98.9487C39.8412 98.2534 40.9504 97.9165 42.1676 97.9165H42.1758C42.3263 97.9165 42.4752 97.9236 42.6225 97.9325C42.6312 97.9334 42.6396 97.9339 42.6478 97.9343C42.6564 97.9347 42.6648 97.9352 42.6732 97.9361C42.8237 97.9486 42.9709 97.9646 43.1165 97.9878C43.1206 97.9887 43.1243 97.9891 43.128 97.9896C43.1317 97.99 43.1353 97.9905 43.1394 97.9914C43.4339 98.0395 43.7186 98.109 43.9918 98.2017C44 98.2044 44.0077 98.2071 44.0155 98.2098C44.0233 98.2124 44.0311 98.2151 44.0392 98.2178C44.1603 98.2606 44.2781 98.3051 44.3943 98.3568L44.3959 98.3604Z" fill="#FFC627"/>
<ellipse cx="151" cy="42.4583" rx="11.0833" ry="3.95833" fill="#FFDC7D"/>
<path fill-rule="evenodd" clip-rule="evenodd" d="M139.917 24.2498C139.917 18.1223 144.873 13.1665 151 13.1665C157.128 13.1665 162.084 18.1223 162.084 24.2498C162.084 30.8523 155.085 39.9565 152.219 43.424C151.586 44.184 150.43 44.184 149.797 43.424C146.915 39.9565 139.917 30.8523 139.917 24.2498ZM156.396 18.3604C157.896 19.0325 158.917 20.4872 158.917 22.8351V28.9998H155.756V23.1399C155.756 22.7067 155.691 22.3484 155.575 22.0596C155.319 21.4285 154.814 21.1326 154.169 21.1308C153.543 21.1326 153.047 21.4178 152.787 22.015C152.658 22.311 152.586 22.6836 152.586 23.1382V28.9998H152.576H149.425H149.415V23.1399C149.415 22.7299 149.356 22.3876 149.251 22.1077C149.003 21.4463 148.489 21.1326 147.828 21.1308C147.193 21.1326 146.693 21.4232 146.436 22.0364C146.313 22.3288 146.244 22.6943 146.244 23.1382V28.9963H143.084V22.8351C143.084 20.4872 144.105 19.0325 145.606 18.3622L145.608 18.3586C145.721 18.3069 145.839 18.2623 145.956 18.2213C145.976 18.2142 145.996 18.2071 146.017 18.2C146.148 18.1554 146.282 18.1162 146.418 18.0823C146.42 18.0814 146.423 18.081 146.425 18.0805C146.428 18.0801 146.43 18.0796 146.433 18.0787C146.568 18.0449 146.707 18.0181 146.848 17.9949C146.855 17.994 146.863 17.9927 146.87 17.9914C146.878 17.99 146.885 17.9887 146.892 17.9878C147.031 17.9664 147.174 17.9486 147.319 17.9379L147.391 17.9325C147.534 17.9236 147.679 17.9165 147.826 17.9165H147.835C149.052 17.9165 150.161 18.2534 151 18.9487C151.841 18.2534 152.95 17.9165 154.168 17.9165H154.176C154.326 17.9165 154.475 17.9236 154.622 17.9325C154.631 17.9334 154.64 17.9339 154.648 17.9343C154.656 17.9347 154.665 17.9352 154.673 17.9361C154.824 17.9486 154.971 17.9646 155.117 17.9878C155.121 17.9887 155.124 17.9891 155.128 17.9896C155.132 17.99 155.135 17.9905 155.139 17.9914C155.434 18.0395 155.719 18.109 155.992 18.2017C156 18.2044 156.008 18.2071 156.016 18.2098C156.023 18.2124 156.031 18.2151 156.039 18.2178C156.16 18.2606 156.278 18.3051 156.394 18.3568L156.396 18.3604Z" fill="#FFC627"/>
</g>
<defs>
<clipPath id="clip0_1866_19884">
<rect width="328" height="256" fill="white"/>
</clipPath>
</defs>
</svg>
