<svg width="24" height="24" viewBox="0 0 24 24" fill="none" xmlns="http://www.w3.org/2000/svg">
<path d="M4.458 9.34518C2.76272 12.287 3.84044 16.7514 5.71515 19.4584C6.65092 20.8117 7.59834 22.0265 8.89598 22.0265C8.92044 22.0265 8.94496 22.026 8.97008 22.0251C9.57975 22.0007 10.0203 21.813 10.4463 21.6316C10.9245 21.4278 11.4192 21.2171 12.195 21.2171C12.933 21.2171 13.4041 21.421 13.8595 21.6181C14.3085 21.8123 14.7709 22.0132 15.4541 22.0004C16.9158 21.9732 17.8132 20.6623 18.605 19.5059C19.4313 18.2985 19.8457 17.1261 19.9856 16.6781L19.9912 16.6603C20.0179 16.5807 19.9803 16.4938 19.9039 16.4587C19.9018 16.4577 19.8941 16.4545 19.8919 16.4536C19.6345 16.3483 17.3766 15.3467 17.3529 12.6166C17.3309 10.3986 19.0467 9.22401 19.3908 9.01112L19.4069 9.00112C19.4442 8.97713 19.4701 8.93906 19.4789 8.89553C19.4877 8.85208 19.4785 8.80684 19.4536 8.77029C18.2692 7.03707 16.4539 6.77585 15.7231 6.74443C15.617 6.73384 15.5076 6.72852 15.3976 6.72852C14.5392 6.72852 13.7169 7.05271 13.0563 7.3132C12.6003 7.49302 12.2064 7.64831 11.9347 7.64831C11.6295 7.64831 11.2334 7.49111 10.7746 7.30913C10.1612 7.06567 9.46594 6.78979 8.72991 6.78979C8.71235 6.78979 8.69506 6.78999 8.67803 6.79032C6.96664 6.8155 5.34953 7.7946 4.458 9.34518Z" fill="#585858"/>
<path d="M15.7257 1.97376C14.6893 2.01597 13.4461 2.65391 12.7031 3.52427C12.0716 4.25583 11.4547 5.47557 11.6172 6.70504C11.6274 6.78196 11.69 6.84133 11.7673 6.84731C11.8373 6.85277 11.9087 6.85553 11.9798 6.8556C12.9932 6.8556 14.0864 6.29497 14.8329 5.39227C15.6187 4.43907 16.016 3.21578 15.8958 2.12005C15.8863 2.03418 15.8108 1.97041 15.7257 1.97376Z" fill="#585858"/>
</svg>
