<svg width="24" height="24" viewBox="0 0 24 24" fill="none" xmlns="http://www.w3.org/2000/svg">
<path d="M12.43 22.9C11.7681 23.2194 11 22.7371 11 22.0022V19.99C5.99 19.73 2 15.57 2 10.5C2 5.26 6.26 1 11.5 1C16.74 1 21 5.26 21 10.5C21 15.45 17.56 20.43 12.43 22.9ZM11.5 3C7.36 3 4 6.36 4 10.5C4 14.64 7.36 18 11.5 18H12C12.5523 18 13 18.4477 13 19V20.3C16.64 18 19 14.22 19 10.5C19 6.36 15.64 3 11.5 3ZM10.5 15.5C10.5 14.9477 10.9477 14.5 11.5 14.5C12.0523 14.5 12.5 14.9477 12.5 15.5C12.5 16.0523 12.0523 16.5 11.5 16.5C10.9477 16.5 10.5 16.0523 10.5 15.5ZM12.5 13H10.5C10.5 9.75 13.5 10 13.5 8C13.5 6.9 12.6 6 11.5 6C10.6758 6 9.96389 6.50526 9.65871 7.22134C9.48548 7.62779 9.14183 8 8.7 8H8.5C7.94772 8 7.48716 7.54534 7.62331 7.0101C8.06356 5.27927 9.6317 4 11.5 4C13.71 4 15.5 5.79 15.5 8C15.5 10.5 12.5 10.75 12.5 13Z" fill="#4F4F4F"/>
</svg>
